<svg width="18" height="18" viewBox="0 0 18 18" fill="none" xmlns="http://www.w3.org/2000/svg">
<path d="M9 12.7835C8.47841 12.7835 7.98972 12.685 7.53392 12.4879C7.07812 12.2908 6.67401 12.0186 6.32159 11.6714C5.97386 11.3241 5.70132 10.9229 5.50396 10.4677C5.31131 10.0078 5.21498 9.51972 5.21498 9.00352C5.21498 8.48262 5.31131 7.99457 5.50396 7.53938C5.70132 7.07948 5.97386 6.67591 6.32159 6.32864C6.67401 5.98138 7.07812 5.70919 7.53392 5.5121C7.98972 5.315 8.47841 5.21645 9 5.21645C9.51689 5.21645 10.0032 5.315 10.459 5.5121C10.9148 5.70919 11.3166 5.98138 11.6643 6.32864C12.0167 6.67591 12.2893 7.07948 12.4819 7.53938C12.6793 7.99457 12.778 8.48262 12.778 9.00352C12.778 9.51972 12.6793 10.0078 12.4819 10.4677C12.2893 10.9229 12.0167 11.3241 11.6643 11.6714C11.3166 12.0186 10.9148 12.2908 10.459 12.4879C10.0032 12.685 9.51689 12.7835 9 12.7835ZM9 3.97756C8.78855 3.97756 8.60529 3.90248 8.45022 3.75231C8.29985 3.59745 8.22467 3.41443 8.22467 3.20326V1.78135C8.22467 1.57017 8.29985 1.38715 8.45022 1.23229C8.60529 1.07743 8.78855 1 9 1C9.21145 1 9.39236 1.07743 9.54273 1.23229C9.6978 1.38715 9.77533 1.57017 9.77533 1.78135V3.20326C9.77533 3.41443 9.6978 3.59745 9.54273 3.75231C9.39236 3.90248 9.21145 3.97756 9 3.97756ZM12.5524 5.46986C12.4068 5.31969 12.3316 5.13668 12.3269 4.92081C12.3269 4.70494 12.3997 4.52427 12.5454 4.37879L13.5674 3.35812C13.7131 3.21264 13.894 3.1399 14.1101 3.1399C14.3263 3.13521 14.5072 3.2056 14.6529 3.35108C14.8032 3.50125 14.8784 3.68661 14.8784 3.90717C14.8831 4.12304 14.8103 4.30371 14.6599 4.44919L13.652 5.46282C13.5016 5.61299 13.3184 5.68808 13.1022 5.68808C12.8861 5.68808 12.7028 5.61534 12.5524 5.46986ZM14.0256 9.00352C14.0256 8.79234 14.1007 8.61167 14.2511 8.4615C14.4062 8.30664 14.5894 8.22921 14.8009 8.22921H16.2317C16.4385 8.22921 16.617 8.30664 16.7674 8.4615C16.9225 8.61167 17 8.79234 17 9.00352C17 9.21 16.9225 9.39067 16.7674 9.54553C16.617 9.6957 16.4385 9.77079 16.2317 9.77079H14.8009C14.5894 9.77079 14.4062 9.6957 14.2511 9.54553C14.1007 9.39067 14.0256 9.21 14.0256 9.00352ZM12.5454 12.5513C12.6957 12.4058 12.879 12.333 13.0952 12.333C13.3113 12.3283 13.4922 12.3987 13.6379 12.5442L14.6599 13.5579C14.8103 13.708 14.8855 13.8887 14.8855 14.0999C14.8855 14.3157 14.8126 14.4988 14.667 14.6489C14.5166 14.7897 14.3333 14.8624 14.1172 14.8671C13.901 14.8718 13.7201 14.8014 13.5744 14.656L12.5524 13.6353C12.4068 13.4898 12.3316 13.3115 12.3269 13.1003C12.3269 12.8844 12.3997 12.7014 12.5454 12.5513ZM9 14.0295C9.21145 14.0295 9.39236 14.1046 9.54273 14.2547C9.6978 14.4096 9.77533 14.5903 9.77533 14.7967V16.2257C9.77533 16.4369 9.6978 16.6175 9.54273 16.7677C9.39236 16.9226 9.21145 17 9 17C8.78855 17 8.60529 16.9226 8.45022 16.7677C8.29985 16.6175 8.22467 16.4369 8.22467 16.2257V14.7967C8.22467 14.5903 8.29985 14.4096 8.45022 14.2547C8.60529 14.1046 8.78855 14.0295 9 14.0295ZM5.45463 12.5513C5.59559 12.7014 5.66373 12.8844 5.65903 13.1003C5.65903 13.3115 5.5862 13.4898 5.44053 13.6353L4.42555 14.656C4.27518 14.7967 4.09192 14.8648 3.87577 14.8601C3.65962 14.8601 3.47636 14.7874 3.32599 14.6419C3.18032 14.4917 3.10749 14.3087 3.10749 14.0928C3.11219 13.8817 3.18972 13.701 3.34009 13.5508L4.35507 12.5442C4.50073 12.3987 4.68164 12.3283 4.8978 12.333C5.11865 12.333 5.30426 12.4058 5.45463 12.5513ZM3.97445 9.00352C3.97445 9.21 3.89692 9.39067 3.74185 9.54553C3.59148 9.6957 3.40822 9.77079 3.19207 9.77079H1.76828C1.56153 9.77079 1.38062 9.6957 1.22555 9.54553C1.07518 9.39067 1 9.21 1 9.00352C1 8.79234 1.07518 8.61167 1.22555 8.4615C1.38062 8.30664 1.56153 8.22921 1.76828 8.22921H3.19207C3.40822 8.22921 3.59148 8.30664 3.74185 8.4615C3.89692 8.61167 3.97445 8.79234 3.97445 9.00352ZM5.44053 5.46986C5.29016 5.61534 5.1069 5.68808 4.89075 5.68808C4.6746 5.68338 4.49369 5.6083 4.34802 5.46282L3.33304 4.44215C3.19207 4.30136 3.12159 4.12304 3.12159 3.90717C3.12159 3.68661 3.19677 3.50125 3.34714 3.35108C3.4928 3.2056 3.67372 3.13521 3.88987 3.1399C4.10602 3.1399 4.28928 3.21264 4.43965 3.35812L5.45463 4.37879C5.59559 4.52427 5.66373 4.70729 5.65903 4.92785C5.65903 5.14372 5.5862 5.32439 5.44053 5.46986Z" fill="white" fill-opacity="0.72"/>
</svg>
