<svg width="24" height="24" viewBox="0 0 24 24" fill="none" xmlns="http://www.w3.org/2000/svg">
<path fill-rule="evenodd" clip-rule="evenodd" d="M1 10.55C1 5.27568 5.27568 1 10.55 1C15.8243 1 20.1 5.27568 20.1 10.55C20.1 12.827 19.3031 14.9178 17.9731 16.5589L21.7071 20.2929C22.0976 20.6834 22.0976 21.3166 21.7071 21.7071C21.3166 22.0976 20.6834 22.0976 20.2929 21.7071L16.5589 17.9731C14.9178 19.3031 12.827 20.1 10.55 20.1C5.27568 20.1 1 15.8243 1 10.55ZM10.55 3C6.38025 3 3 6.38025 3 10.55C3 14.7197 6.38025 18.1 10.55 18.1C14.7197 18.1 18.1 14.7197 18.1 10.55C18.1 6.38025 14.7197 3 10.55 3Z" fill="black"/>
</svg>
