<svg width="24" height="24" viewBox="0 0 24 24" fill="none" xmlns="http://www.w3.org/2000/svg">
<g clip-path="url(#clip0_24_4539)">
<path d="M15.2929 7.70734C15.5581 7.70734 15.8124 7.81265 15.9999 8.00012C16.1874 8.18765 16.2927 8.44196 16.2927 8.70712C16.2927 8.97229 16.1874 9.22659 15.9999 9.41412L13.4139 12.0001L15.9999 14.5861C16.1821 14.7747 16.2829 15.0273 16.2806 15.2895C16.2783 15.5517 16.1732 15.8025 15.9878 15.9879C15.8023 16.1733 15.5515 16.2785 15.2893 16.2808C15.0271 16.2831 14.7745 16.1823 14.5859 16.0001L11.9999 13.4141L9.41395 16.0001C9.22534 16.1823 8.97274 16.2831 8.71055 16.2808C8.44835 16.2785 8.19754 16.1733 8.01213 15.9879C7.82672 15.8025 7.72155 15.5517 7.71928 15.2895C7.717 15.0273 7.81779 14.7747 7.99995 14.5861L10.5859 12.0001L7.99995 9.41412C7.81779 9.22552 7.717 8.97292 7.71928 8.71072C7.72155 8.44853 7.82672 8.19771 8.01213 8.0123C8.19754 7.8269 8.44835 7.72173 8.71055 7.71945C8.97274 7.71717 9.22534 7.81797 9.41395 8.00012L11.9999 10.5861L14.5859 8.00012C14.7735 7.81265 15.0278 7.70734 15.2929 7.70734Z" fill="black"/>
<path fill-rule="evenodd" clip-rule="evenodd" d="M5.33316 2.02236C7.30655 0.703788 9.62663 0 12 0C15.1815 0.00344108 18.2318 1.26883 20.4815 3.51852C22.7312 5.76821 23.9966 8.81846 24 12C24 14.3734 23.2962 16.6935 21.9776 18.6668C20.6591 20.6402 18.7849 22.1783 16.5922 23.0866C14.3995 23.9948 11.9867 24.2324 9.65892 23.7694C7.33115 23.3064 5.19295 22.1635 3.51472 20.4853C1.83649 18.8071 0.693605 16.6689 0.230582 14.3411C-0.232441 12.0133 0.00519943 9.60051 0.913451 7.4078C1.8217 5.21509 3.35977 3.34094 5.33316 2.02236ZM6.4443 20.3147C8.08879 21.4135 10.0222 22 12 22C14.6513 21.9971 17.1931 20.9426 19.0679 19.0679C20.9426 17.1931 21.9971 14.6513 22 12C22 10.0222 21.4135 8.08879 20.3147 6.4443C19.2159 4.79981 17.6541 3.51808 15.8268 2.7612C13.9996 2.00433 11.9889 1.8063 10.0491 2.19215C8.10929 2.578 6.32746 3.53041 4.92894 4.92893C3.53041 6.32746 2.578 8.10929 2.19215 10.0491C1.8063 11.9889 2.00433 13.9996 2.76121 15.8268C3.51809 17.6541 4.79981 19.2159 6.4443 20.3147Z" fill="black"/>
</g>
<defs>
<clipPath id="clip0_24_4539">
<rect width="24" height="24" fill="white"/>
</clipPath>
</defs>
</svg>
