<svg width="24" height="24" viewBox="0 0 24 24" fill="none" xmlns="http://www.w3.org/2000/svg">
<g clip-path="url(#clip0_78_4556)">
<path d="M1 9H23V19C23 21.2091 21.2091 23 19 23H5C2.79086 23 1 21.2091 1 19V9Z" fill="white"/>
<path d="M1 9H23V7C23 4.79086 21.2091 3 19 3H5C2.79086 3 1 4.79086 1 7V9Z" fill="#EA4336"/>
<path d="M13.5 15C13.5 15.8284 12.8284 16.5 12 16.5C11.1716 16.5 10.5 15.8284 10.5 15C10.5 14.1716 11.1716 13.5 12 13.5C12.8284 13.5 13.5 14.1716 13.5 15Z" fill="black"/>
<path d="M7 16.5C7.82843 16.5 8.5 15.8284 8.5 15C8.5 14.1716 7.82843 13.5 7 13.5C6.17157 13.5 5.5 14.1716 5.5 15C5.5 15.8284 6.17157 16.5 7 16.5Z" fill="black"/>
<path d="M18.5 15C18.5 15.8284 17.8284 16.5 17 16.5C16.1716 16.5 15.5 15.8284 15.5 15C15.5 14.1716 16.1716 13.5 17 13.5C17.8284 13.5 18.5 14.1716 18.5 15Z" fill="black"/>
<path fill-rule="evenodd" clip-rule="evenodd" d="M18 2H19C20.3256 2.00159 21.5964 2.52888 22.5338 3.46622C23.4711 4.40356 23.9984 5.67441 24 7V19C23.9984 20.3256 23.4711 21.5964 22.5338 22.5338C21.5964 23.4711 20.3256 23.9984 19 24H5C3.67441 23.9984 2.40356 23.4711 1.46622 22.5338C0.528882 21.5964 0.00158786 20.3256 0 19V7C0.00158786 5.67441 0.528882 4.40356 1.46622 3.46622C2.40356 2.52888 3.67441 2.00159 5 2H6V1C6 0.734784 6.10536 0.48043 6.29289 0.292893C6.48043 0.105357 6.73478 0 7 0C7.26522 0 7.51957 0.105357 7.70711 0.292893C7.89464 0.48043 8 0.734784 8 1V2H16V1C16 0.734784 16.1054 0.48043 16.2929 0.292893C16.4804 0.105357 16.7348 0 17 0C17.2652 0 17.5196 0.105357 17.7071 0.292893C17.8946 0.48043 18 0.734784 18 1V2ZM2.87868 4.87868C2.31607 5.44129 2 6.20435 2 7V8H22V7C22 6.20435 21.6839 5.44129 21.1213 4.87868C20.5587 4.31607 19.7956 4 19 4H5C4.20435 4 3.44129 4.31607 2.87868 4.87868ZM2.87868 21.1213C3.44129 21.6839 4.20435 22 5 22H19C19.7956 22 20.5587 21.6839 21.1213 21.1213C21.6839 20.5587 22 19.7956 22 19V10H2V19C2 19.7956 2.31607 20.5587 2.87868 21.1213Z" fill="black"/>
</g>
<defs>
<clipPath id="clip0_78_4556">
<rect width="24" height="24" fill="white"/>
</clipPath>
</defs>
</svg>
