<svg width="24" height="24" viewBox="0 0 24 24" fill="none" xmlns="http://www.w3.org/2000/svg">
<g clip-path="url(#clip0_201_451)">
<circle cx="12" cy="12" r="12" fill="black" fill-opacity="0.08"/>
<path d="M15.2929 7.70728C15.5581 7.70728 15.8124 7.81259 15.9999 8.00006C16.1874 8.18759 16.2927 8.4419 16.2927 8.70706C16.2927 8.97223 16.1874 9.22653 15.9999 9.41406L13.4139 12.0001L15.9999 14.5861C16.1821 14.7747 16.2829 15.0273 16.2806 15.2895C16.2783 15.5517 16.1732 15.8025 15.9878 15.9879C15.8023 16.1733 15.5515 16.2785 15.2893 16.2807C15.0271 16.283 14.7745 16.1822 14.5859 16.0001L11.9999 13.4141L9.41395 16.0001C9.22534 16.1822 8.97274 16.283 8.71055 16.2807C8.44835 16.2785 8.19754 16.1733 8.01213 15.9879C7.82672 15.8025 7.72155 15.5517 7.71928 15.2895C7.717 15.0273 7.81779 14.7747 7.99995 14.5861L10.5859 12.0001L7.99995 9.41406C7.81779 9.22546 7.717 8.97286 7.71928 8.71066C7.72155 8.44846 7.82672 8.19765 8.01213 8.01224C8.19754 7.82684 8.44835 7.72167 8.71055 7.71939C8.97274 7.71711 9.22534 7.8179 9.41395 8.00006L11.9999 10.5861L14.5859 8.00006C14.7735 7.81259 15.0278 7.70728 15.2929 7.70728Z" fill="black" fill-opacity="0.56"/>
</g>
<defs>
<clipPath id="clip0_201_451">
<rect width="24" height="24" fill="white"/>
</clipPath>
</defs>
</svg>
