<svg width="24" height="24" viewBox="0 0 24 24" fill="none" xmlns="http://www.w3.org/2000/svg">
<path d="M9.05273 9.84534C8.89648 10.0537 8.82161 10.332 8.82812 10.6803H7.5293C7.54232 10.3287 7.60254 9.99508 7.70996 9.67932C7.82389 9.40263 8.00293 9.14709 8.24707 8.91272C8.42936 8.7467 8.64583 8.61975 8.89648 8.53186C9.14714 8.44397 9.45475 8.40002 9.81934 8.40002C10.4964 8.40002 11.0417 8.57581 11.4551 8.92737C11.8717 9.27568 12.0801 9.74443 12.0801 10.3336C12.0801 10.7503 11.9564 11.1018 11.709 11.3883C11.5527 11.5673 11.39 11.6894 11.2207 11.7545C11.3477 11.7545 11.5299 11.8636 11.7676 12.0817C12.1224 12.4104 12.2998 12.8597 12.2998 13.4293C12.2998 14.0283 12.0915 14.5556 11.6748 15.0114C11.2614 15.4638 10.6478 15.6901 9.83398 15.6901C8.83138 15.6901 8.13477 15.3629 7.74414 14.7086C7.53906 14.3603 7.42513 13.9046 7.40234 13.3414H8.76953C8.76953 13.6246 8.8151 13.859 8.90625 14.0446C9.07552 14.3864 9.38314 14.5573 9.8291 14.5573C10.1025 14.5573 10.3402 14.4645 10.542 14.2789C10.7471 14.0901 10.8496 13.8199 10.8496 13.4684C10.8496 13.0029 10.6608 12.692 10.2832 12.5358C10.0684 12.4479 9.72982 12.4039 9.26758 12.4039V11.4078C9.72005 11.4013 10.0358 11.3574 10.2148 11.276C10.5241 11.1393 10.6787 10.8626 10.6787 10.4459C10.6787 10.1757 10.599 9.95601 10.4395 9.78674C10.2832 9.61747 10.0618 9.53284 9.77539 9.53284C9.44661 9.53284 9.20573 9.637 9.05273 9.84534Z" fill="#4285F4"/>
<path d="M16.0793 15.5143H14.6535V10.6315H12.9884V9.6842C13.4279 9.66467 13.7355 9.63538 13.9113 9.59631C14.1912 9.53446 14.4191 9.41077 14.5949 9.22522C14.7153 9.09827 14.8065 8.929 14.8683 8.71741C14.9041 8.59045 14.922 8.49605 14.922 8.4342H16.0793V15.5143Z" fill="#4285F4"/>
<path d="M18 1H21C22.1046 1 23 1.89543 23 3V18L18 23V1Z" fill="#FBBB07"/>
<path d="M23 3C23 1.89543 22.1046 1 21 1H3C1.89543 1 1 1.89543 1 3V21C1 22.1046 1.89543 23 3 23H6V6H23V3Z" fill="#4285F4"/>
<path fill-rule="evenodd" clip-rule="evenodd" d="M21 1C22.1046 1 23 1.89543 23 3V6H18V1H21Z" fill="#1967D2"/>
<path d="M1 18H23L18 23H3C1.89543 23 1 22.1046 1 21V18Z" fill="#34A753"/>
<path fill-rule="evenodd" clip-rule="evenodd" d="M6 18H1V21C1 22.1046 1.89543 23 3 23H6V18Z" fill="#178038"/>
<path fill-rule="evenodd" clip-rule="evenodd" d="M18 23L23 18H18V23Z" fill="#EA4336"/>
</svg>
