<svg width="24" height="24" viewBox="0 0 24 24" fill="none" xmlns="http://www.w3.org/2000/svg">
<g clip-path="url(#clip0_80_6788)">
<circle cx="12" cy="12" r="12" fill="black" fill-opacity="0.16"/>
<path d="M16.2929 6.70734C16.5581 6.70734 16.8124 6.81265 16.9999 7.00012C17.1874 7.18765 17.2927 7.44196 17.2927 7.70712C17.2927 7.97229 17.1874 8.22659 16.9999 8.41412L13.4139 12.0001L16.9999 15.5861C17.1821 15.7747 17.2829 16.0273 17.2806 16.2895C17.2783 16.5517 17.1732 16.8025 16.9878 16.9879C16.8023 17.1733 16.5515 17.2785 16.2893 17.2808C16.0271 17.2831 15.7745 17.1823 15.5859 17.0001L11.9999 13.4141L8.41395 17.0001C8.22534 17.1823 7.97274 17.2831 7.71055 17.2808C7.44835 17.2785 7.19754 17.1733 7.01213 16.9879C6.82672 16.8025 6.72155 16.5517 6.71928 16.2895C6.717 16.0273 6.81779 15.7747 6.99995 15.5861L10.5859 12.0001L6.99995 8.41412C6.81779 8.22552 6.717 7.97292 6.71928 7.71072C6.72155 7.44853 6.82672 7.19771 7.01213 7.0123C7.19754 6.8269 7.44835 6.72173 7.71055 6.71945C7.97274 6.71717 8.22534 6.81797 8.41395 7.00012L11.9999 10.5861L15.5859 7.00012C15.7735 6.81265 16.0278 6.70734 16.2929 6.70734Z" fill="black" fill-opacity="0.56"/>
</g>
<defs>
<clipPath id="clip0_80_6788">
<rect width="24" height="24" fill="white"/>
</clipPath>
</defs>
</svg>
