<svg width="24" height="24" viewBox="0 0 24 24" fill="none" xmlns="http://www.w3.org/2000/svg">
<g clip-path="url(#clip0_201_456)">
<circle cx="12" cy="12" r="12" fill="black" fill-opacity="0.08"/>
<path d="M6 10C6 9.44772 6.44772 9 7 9H17C17.5523 9 18 9.44772 18 10C18 10.5523 17.5523 11 17 11H7C6.44772 11 6 10.5523 6 10Z" fill="black" fill-opacity="0.56"/>
<path d="M7 13C6.44772 13 6 13.4477 6 14C6 14.5523 6.44772 15 7 15H17C17.5523 15 18 14.5523 18 14C18 13.4477 17.5523 13 17 13H7Z" fill="black" fill-opacity="0.56"/>
</g>
<defs>
<clipPath id="clip0_201_456">
<rect width="24" height="24" fill="white"/>
</clipPath>
</defs>
</svg>
