<svg width="24" height="24" viewBox="0 0 24 24" fill="none" xmlns="http://www.w3.org/2000/svg">
<path fill-rule="evenodd" clip-rule="evenodd" d="M5.33316 2.02236C7.30655 0.703788 9.62663 0 12 0C15.1815 0.00344108 18.2318 1.26883 20.4815 3.51852C22.7312 5.76821 23.9966 8.81846 24 12C24 14.3734 23.2962 16.6935 21.9776 18.6668C20.6591 20.6402 18.7849 22.1783 16.5922 23.0865C14.3995 23.9948 11.9867 24.2324 9.65892 23.7694C7.33115 23.3064 5.19295 22.1635 3.51472 20.4853C1.83649 18.807 0.693604 16.6689 0.230582 14.3411C-0.232441 12.0133 0.00519946 9.60051 0.913451 7.4078C1.8217 5.21509 3.35977 3.34094 5.33316 2.02236ZM15.4394 7.061C15.8371 7.061 16.2186 7.21898 16.4999 7.50018C16.7811 7.78148 16.9391 8.16294 16.9391 8.56068C16.9391 8.95843 16.7811 9.33989 16.4999 9.62118L14.1209 12.0002L16.4999 14.3792C16.7731 14.6621 16.9243 15.041 16.9209 15.4343C16.9175 15.8276 16.7597 16.2038 16.4816 16.4819C16.2035 16.76 15.8273 16.9178 15.434 16.9212C15.0407 16.9246 14.6618 16.7734 14.3789 16.5002L11.9999 14.1212L9.62092 16.5002C9.33802 16.7734 8.95912 16.9246 8.56582 16.9212C8.17253 16.9178 7.79631 16.76 7.5182 16.4819C7.24008 16.2038 7.08233 15.8276 7.07891 15.4343C7.0755 15.041 7.22669 14.6621 7.49992 14.3792L9.87892 12.0002L7.49992 9.62118C7.22669 9.33828 7.0755 8.95938 7.07891 8.56608C7.08233 8.17279 7.24008 7.79657 7.5182 7.51846C7.79631 7.24034 8.17253 7.08259 8.56582 7.07917C8.95912 7.07576 9.33802 7.22695 9.62092 7.50018L11.9999 9.87918L14.3789 7.50018C14.6602 7.21898 15.0417 7.061 15.4394 7.061Z" fill="#515151"/>
</svg>
