<svg width="18" height="18" viewBox="0 0 18 18" fill="none" xmlns="http://www.w3.org/2000/svg">
<path d="M12.4567 11.0665C12.8291 11.0665 13.1931 11.0328 13.5486 10.9654C13.9041 10.898 14.1962 10.8221 14.4247 10.7379C14.5855 10.6662 14.7231 10.6304 14.8374 10.6304C14.9474 10.6304 15.0426 10.6705 15.123 10.7505C15.2077 10.8306 15.25 10.9338 15.25 11.0602C15.25 11.1107 15.2415 11.176 15.2246 11.2561C15.2119 11.3361 15.1865 11.4225 15.1484 11.5152C14.9326 12.0502 14.63 12.5452 14.2406 13.0003C13.8555 13.451 13.4026 13.845 12.882 14.182C12.3657 14.519 11.8007 14.7802 11.187 14.9656C10.5776 15.1552 9.93639 15.25 9.26346 15.25C8.33659 15.25 7.47744 15.0941 6.68601 14.7824C5.89457 14.4706 5.20471 14.0282 4.61643 13.4553C4.02814 12.8823 3.56894 12.2082 3.23883 11.433C2.91294 10.6578 2.75 9.80679 2.75 8.87993C2.75 8.00362 2.91294 7.16523 3.23883 6.36476C3.56894 5.56008 4.03026 4.85019 4.62278 4.23509C5.2153 3.61999 5.90515 3.15445 6.69236 2.83847C6.777 2.80477 6.85742 2.7816 6.9336 2.76896C7.00978 2.75632 7.07538 2.75 7.1304 2.75C7.26583 2.75 7.36952 2.79213 7.44147 2.87639C7.51765 2.96065 7.55574 3.05544 7.55574 3.16077C7.55574 3.21554 7.54727 3.27663 7.53035 3.34403C7.51342 3.40723 7.48591 3.48306 7.44782 3.57154C7.3674 3.74006 7.29757 3.9486 7.23832 4.19717C7.17907 4.44574 7.13251 4.70694 7.09865 4.98079C7.0648 5.25463 7.04787 5.51373 7.04787 5.75809C7.04787 6.57963 7.17272 7.3169 7.42242 7.96992C7.67636 8.62294 8.03822 9.18116 8.508 9.64459C8.98201 10.1038 9.55125 10.4556 10.2157 10.6999C10.8802 10.9443 11.6272 11.0665 12.4567 11.0665Z" fill="white" fill-opacity="0.72"/>
</svg>
