<svg width="18" height="18" viewBox="0 0 18 18" fill="none" xmlns="http://www.w3.org/2000/svg">
<path d="M12.3929 12.057C12.3929 12.2401 12.3763 12.419 12.343 12.5938C12.3097 12.7686 12.2597 12.9351 12.1931 13.0933H5.80687C5.74028 12.9351 5.69034 12.7686 5.65704 12.5938C5.62375 12.419 5.6071 12.2401 5.6071 12.057C5.6071 11.5908 5.6945 11.1518 5.86929 10.7398C6.04825 10.3277 6.2938 9.96567 6.60593 9.65353C6.91806 9.3414 7.27806 9.09793 7.68591 8.92314C8.09377 8.74418 8.53284 8.6547 9.00312 8.6547C9.46924 8.6547 9.90623 8.74418 10.3141 8.92314C10.7219 9.09793 11.0819 9.3414 11.3941 9.65353C11.7062 9.96567 11.9497 10.3277 12.1245 10.7398C12.3034 11.1518 12.3929 11.5908 12.3929 12.057ZM2.42957 12.3566C2.25062 12.3566 2.10079 12.3004 1.9801 12.1881C1.85941 12.0757 1.79906 11.9363 1.79906 11.7698C1.79906 11.6075 1.85941 11.4702 1.9801 11.3578C2.10079 11.2413 2.25062 11.183 2.42957 11.183H3.80921C3.98816 11.183 4.13591 11.2413 4.25244 11.3578C4.37313 11.4702 4.43556 11.6075 4.43972 11.7698C4.43972 11.9363 4.37937 12.0778 4.25868 12.1943C4.13799 12.3067 3.98816 12.3629 3.80921 12.3629L2.42957 12.3566ZM4.90792 8.81077L3.93406 7.83691C3.80505 7.70789 3.73846 7.56015 3.7343 7.39368C3.7343 7.22721 3.79256 7.08779 3.90909 6.97542C4.02562 6.86305 4.16504 6.80895 4.32735 6.81311C4.49382 6.81311 4.64157 6.87762 4.77058 7.00663L5.74444 7.98049C5.87346 8.10535 5.93796 8.25309 5.93796 8.42372C5.94213 8.59019 5.88802 8.72961 5.77565 8.84198C5.66329 8.95851 5.52178 9.0147 5.35115 9.01053C5.18052 9.00637 5.03277 8.93978 4.90792 8.81077ZM12.2243 8.84198C12.1078 8.72961 12.0516 8.59019 12.0558 8.42372C12.06 8.25309 12.1265 8.10535 12.2556 7.98049L13.2294 7.00663C13.3584 6.87762 13.5062 6.81103 13.6726 6.80687C13.8391 6.80271 13.9785 6.85889 14.0909 6.97542C14.2074 7.09195 14.2636 7.23345 14.2595 7.39992C14.2595 7.56223 14.195 7.70789 14.0659 7.83691L13.0921 8.81077C12.9672 8.93978 12.8195 9.00637 12.6488 9.01053C12.4824 9.01053 12.3409 8.95435 12.2243 8.84198ZM14.1908 12.3566C14.016 12.3566 13.8683 12.3004 13.7476 12.1881C13.6269 12.0757 13.5644 11.9363 13.5603 11.7698C13.5603 11.6075 13.6206 11.4702 13.7413 11.3578C13.8662 11.2413 14.016 11.183 14.1908 11.183H15.5704C15.7535 11.183 15.9034 11.2413 16.0199 11.3578C16.1406 11.4702 16.2009 11.6075 16.2009 11.7698C16.2009 11.9363 16.1406 12.0757 16.0199 12.1881C15.9034 12.3004 15.7535 12.3566 15.5704 12.3566H14.1908ZM1.68045 15.2532C1.49317 15.2532 1.33294 15.1866 1.19977 15.0535C1.06659 14.9244 1 14.7725 1 14.5977C1 14.4188 1.06659 14.2648 1.19977 14.1358C1.33294 14.0068 1.49317 13.9423 1.68045 13.9423H16.3195C16.5068 13.9423 16.6671 14.0068 16.8002 14.1358C16.9334 14.2648 17 14.4188 17 14.5977C17 14.7767 16.9334 14.9307 16.8002 15.0597C16.6671 15.1887 16.5068 15.2532 16.3195 15.2532H1.68045ZM9.00312 2C9.16127 2 9.29861 2.06243 9.41514 2.18728C9.53167 2.30797 9.58993 2.45572 9.58993 2.63051V4.74678L9.49005 5.76434L9.9208 5.2025L10.5888 4.49707C10.647 4.43465 10.7115 4.38471 10.7823 4.34725C10.853 4.30563 10.9321 4.28482 11.0195 4.28482C11.1693 4.28482 11.2921 4.33476 11.3878 4.43465C11.4877 4.53037 11.5377 4.65106 11.5377 4.79672C11.5377 4.87996 11.5189 4.95903 11.4815 5.03394C11.444 5.1047 11.392 5.1692 11.3254 5.22747L9.42138 7.01912C9.27988 7.14813 9.14046 7.21264 9.00312 7.21264C8.86162 7.21264 8.72012 7.14813 8.57862 7.01912L6.6746 5.22747C6.60801 5.1692 6.55599 5.1047 6.51853 5.03394C6.48108 4.95903 6.46235 4.87996 6.46235 4.79672C6.46235 4.65106 6.51021 4.53037 6.60593 4.43465C6.70581 4.33476 6.83067 4.28482 6.98049 4.28482C7.06789 4.28482 7.14696 4.30563 7.21771 4.34725C7.28846 4.38471 7.35297 4.43465 7.41124 4.49707L8.1229 5.25244L8.50995 5.76434L8.41007 4.74678V2.63051C8.41007 2.45572 8.46833 2.30797 8.58486 2.18728C8.70139 2.06243 8.84081 2 9.00312 2Z" fill="white" fill-opacity="0.72"/>
</svg>
