<svg width="18" height="18" viewBox="0 0 18 18" fill="none" xmlns="http://www.w3.org/2000/svg">
<path fill-rule="evenodd" clip-rule="evenodd" d="M15.52 10.747C15.7143 10.0218 15.7828 9.29258 15.7389 8.58245C15.728 8.40523 15.4718 8.37584 15.3899 8.53338C15.1827 8.93196 14.9125 9.28593 14.5953 9.58572L14.5947 9.59057C14.2347 9.94511 13.8103 10.2286 13.3437 10.4254C12.8195 10.6466 12.2541 10.7532 11.6853 10.7383C11.1166 10.7234 10.5575 10.5871 10.0456 10.3388C9.53374 10.0904 9.08077 9.73564 8.71701 9.29814C8.35326 8.86065 8.0871 8.35053 7.93635 7.8019C7.78559 7.25327 7.7537 6.67878 7.84282 6.11684C7.93194 5.5549 8.14002 5.01846 8.45312 4.5434C8.74517 4.10029 9.12232 3.7201 9.56227 3.4247C9.91538 3.17794 10.3075 2.9886 10.7231 2.86597C10.9084 2.81129 10.9337 2.52994 10.7471 2.47994C7.14615 1.51508 3.44488 3.65201 2.48002 7.25291C1.51516 10.8538 3.6521 14.5551 7.25299 15.5199C10.8539 16.4848 14.5552 14.3479 15.52 10.747ZM14.6282 4.84542C14.5795 4.84542 14.5363 4.81404 14.5212 4.76768L14.3585 4.26678C14.3248 4.16313 14.1782 4.16313 14.1445 4.26678L13.9818 4.76768C13.9667 4.81403 13.9235 4.84542 13.8748 4.84542L13.3481 4.84542C13.2391 4.84542 13.1938 4.98487 13.282 5.04893L13.708 5.35851C13.7475 5.38716 13.764 5.43793 13.7489 5.48429L13.5862 5.98519C13.5525 6.08884 13.6711 6.17503 13.7593 6.11097L14.1854 5.80139C14.2248 5.77275 14.2782 5.77275 14.3176 5.80139L14.7437 6.11097C14.8319 6.17503 14.9505 6.08884 14.9168 5.98519L14.7541 5.48429C14.739 5.43793 14.7555 5.38716 14.795 5.35851L15.221 5.04893C15.3092 4.98487 15.2639 4.84542 15.1549 4.84542L14.6282 4.84542ZM10.7695 4.26678C10.8032 4.16313 10.9498 4.16313 10.9835 4.26678L11.1462 4.76768C11.1613 4.81404 11.2045 4.84542 11.2532 4.84542L11.7799 4.84542C11.8889 4.84542 11.9342 4.98488 11.846 5.04893L11.42 5.35851C11.3805 5.38716 11.364 5.43793 11.3791 5.48429L11.5418 5.98519C11.5755 6.08884 11.4569 6.17503 11.3687 6.11097L10.9426 5.80139C10.9032 5.77275 10.8498 5.77275 10.8104 5.80139L10.3843 6.11097C10.2961 6.17503 10.1775 6.08884 10.2112 5.98519L10.3739 5.48429C10.389 5.43793 10.3725 5.38716 10.333 5.35851L9.90695 5.04893C9.81878 4.98487 9.8641 4.84542 9.97308 4.84542L10.4998 4.84542C10.5485 4.84542 10.5917 4.81403 10.6068 4.76768L10.7695 4.26678ZM12.9407 7.09542C12.892 7.09542 12.8488 7.06403 12.8337 7.01768L12.671 6.51678C12.6373 6.41313 12.4907 6.41313 12.457 6.51678L12.2943 7.01768C12.2792 7.06403 12.236 7.09542 12.1873 7.09542L11.6606 7.09542C11.5516 7.09542 11.5063 7.23487 11.5945 7.29893L12.0205 7.60851C12.06 7.63716 12.0765 7.68793 12.0614 7.73429L11.8987 8.23519C11.865 8.33884 11.9836 8.42503 12.0718 8.36097L12.4979 8.05139C12.5373 8.02275 12.5907 8.02275 12.6301 8.05139L13.0562 8.36097C13.1444 8.42503 13.263 8.33884 13.2293 8.23519L13.0666 7.73429C13.0515 7.68793 13.068 7.63716 13.1075 7.60851L13.5335 7.29893C13.6217 7.23487 13.5764 7.09542 13.4674 7.09542L12.9407 7.09542Z" fill="white" fill-opacity="0.72"/>
</svg>
