<svg width="18" height="18" viewBox="0 0 18 18" fill="none" xmlns="http://www.w3.org/2000/svg">
<path fill-rule="evenodd" clip-rule="evenodd" d="M9 2.8125C8.68934 2.8125 8.4375 2.56066 8.4375 2.25V1.6875C8.4375 1.37684 8.68934 1.125 9 1.125C9.31066 1.125 9.5625 1.37684 9.5625 1.6875V2.25C9.5625 2.56066 9.31066 2.8125 9 2.8125ZM12.0938 3.64152C11.8247 3.48619 11.7326 3.14217 11.8879 2.87313L12.1691 2.38599C12.3245 2.11695 12.6685 2.02477 12.9375 2.1801C13.2066 2.33543 13.2988 2.67945 13.1434 2.94849L12.8622 3.43563C12.7068 3.70467 12.3628 3.79685 12.0938 3.64152ZM9 14.0625C11.7959 14.0625 14.0625 11.7959 14.0625 9C14.0625 6.20406 11.7959 3.9375 9 3.9375C6.20406 3.9375 3.9375 6.20406 3.9375 9C3.9375 11.7959 6.20406 14.0625 9 14.0625ZM15.1875 9C15.1875 8.68934 15.4393 8.4375 15.75 8.4375H16.3125C16.6232 8.4375 16.875 8.68934 16.875 9C16.875 9.31066 16.6232 9.5625 16.3125 9.5625H15.75C15.4393 9.5625 15.1875 9.31066 15.1875 9ZM15.8199 5.0625C15.6646 4.79346 15.3206 4.70128 15.0515 4.85661L14.5644 5.13786C14.2954 5.29319 14.2032 5.63721 14.3585 5.90625C14.5138 6.17529 14.8579 6.26747 15.1269 6.11214L15.614 5.83089C15.8831 5.67556 15.9753 5.33154 15.8199 5.0625ZM5.0625 2.1801C4.79346 2.33543 4.70128 2.67945 4.85661 2.94849L5.13786 3.43563C5.29319 3.70467 5.63721 3.79685 5.90625 3.64152C6.17529 3.48619 6.26747 3.14217 6.11214 2.87313L5.83089 2.38599C5.67556 2.11695 5.33154 2.02477 5.0625 2.1801ZM3.64148 5.90625C3.48615 6.17529 3.14213 6.26747 2.87309 6.11214L2.38595 5.83089C2.11691 5.67556 2.02474 5.33154 2.18007 5.0625C2.3354 4.79346 2.67941 4.70128 2.94845 4.85661L3.43559 5.13786C3.70463 5.29319 3.79681 5.63721 3.64148 5.90625ZM9 15.1875C8.68934 15.1875 8.4375 15.4393 8.4375 15.75V16.3125C8.4375 16.6232 8.68934 16.875 9 16.875C9.31066 16.875 9.5625 16.6232 9.5625 16.3125V15.75C9.5625 15.4393 9.31066 15.1875 9 15.1875ZM2.8125 9C2.8125 8.68934 2.56066 8.4375 2.25 8.4375H1.6875C1.37684 8.4375 1.125 8.68934 1.125 9C1.125 9.31066 1.37684 9.5625 1.6875 9.5625H2.25C2.56066 9.5625 2.8125 9.31066 2.8125 9ZM2.18003 12.9375C2.0247 12.6685 2.11688 12.3244 2.38592 12.1691L2.87306 11.8879C3.1421 11.7325 3.48612 11.8247 3.64145 12.0938C3.79678 12.3628 3.7046 12.7068 3.43556 12.8621L2.94842 13.1434C2.67938 13.2987 2.33536 13.2065 2.18003 12.9375ZM5.90628 14.3586C5.63724 14.2033 5.29323 14.2954 5.1379 14.5645L4.85665 15.0516C4.70131 15.3207 4.79349 15.6647 5.06253 15.82C5.33157 15.9753 5.67559 15.8832 5.83092 15.6141L6.11217 15.127C6.2675 14.8579 6.17532 14.5139 5.90628 14.3586ZM12.9375 15.82C12.6685 15.9753 12.3244 15.8832 12.1691 15.6141L11.8879 15.127C11.7325 14.8579 11.8247 14.5139 12.0938 14.3586C12.3628 14.2033 12.7068 14.2954 12.8621 14.5645L13.1434 15.0516C13.2987 15.3207 13.2065 15.6647 12.9375 15.82ZM14.3585 12.0938C14.2032 12.3628 14.2954 12.7068 14.5644 12.8621L15.0516 13.1434C15.3206 13.2987 15.6646 13.2065 15.82 12.9375C15.9753 12.6685 15.8831 12.3244 15.6141 12.1691L15.1269 11.8879C14.8579 11.7325 14.5139 11.8247 14.3585 12.0938Z" fill="white" fill-opacity="0.72"/>
</svg>
