<svg width="814" height="40" viewBox="0 0 814 40" fill="none" xmlns="http://www.w3.org/2000/svg">
<path d="M203 8C203 3.58172 206.582 0 211 0H671C675.418 0 679 3.58172 679 8V32C679 36.4183 675.418 40 671 40H211C206.582 40 203 36.4183 203 32V8Z" fill="url(#paint0_linear_67_12347)"/>
<path d="M794.5 19.5V10.292H792.268V9.324C792.962 9.324 793.5 9.27333 793.884 9.172C794.268 9.07067 794.54 8.916 794.7 8.708C794.866 8.5 794.956 8.24133 794.972 7.932H796.028V19.5H794.5ZM800.936 19.5V10.292H798.704V9.324C799.397 9.324 799.936 9.27333 800.32 9.172C800.704 9.07067 800.976 8.916 801.136 8.708C801.301 8.5 801.392 8.24133 801.408 7.932H802.464V19.5H800.936Z" fill="black"/>
<path d="M788.932 34.754V25.262H790.43L790.444 26.466C790.533 26.3073 790.647 26.151 790.787 25.997C790.927 25.8383 791.093 25.6937 791.284 25.563C791.48 25.4277 791.702 25.3203 791.949 25.241C792.201 25.1617 792.479 25.122 792.782 25.122C793.351 25.122 793.853 25.255 794.287 25.521C794.726 25.7823 795.066 26.186 795.309 26.732C795.556 27.2733 795.68 27.9617 795.68 28.797C795.68 29.637 795.556 30.3417 795.309 30.911C795.066 31.4803 794.719 31.912 794.266 32.206C793.813 32.4953 793.277 32.64 792.656 32.64C792.357 32.64 792.089 32.598 791.851 32.514C791.613 32.43 791.403 32.3203 791.221 32.185C791.039 32.045 790.883 31.8957 790.752 31.737C790.626 31.5737 790.521 31.4127 790.437 31.254V34.754H788.932ZM792.341 31.499C792.896 31.499 793.351 31.2843 793.706 30.855C794.065 30.421 794.245 29.7443 794.245 28.825C794.245 28.0363 794.079 27.4133 793.748 26.956C793.421 26.494 792.952 26.263 792.341 26.263C791.711 26.263 791.235 26.5033 790.913 26.984C790.591 27.46 790.43 28.0737 790.43 28.825C790.43 29.315 790.5 29.763 790.64 30.169C790.785 30.5703 790.999 30.8923 791.284 31.135C791.569 31.3777 791.921 31.499 792.341 31.499ZM796.875 32.5V25.262H798.331V26.305C798.537 25.9877 798.817 25.7123 799.171 25.479C799.526 25.241 799.983 25.122 800.543 25.122C800.805 25.122 801.068 25.1663 801.334 25.255C801.605 25.3437 801.852 25.4767 802.076 25.654C802.305 25.8267 802.485 26.0413 802.615 26.298C802.844 25.9527 803.15 25.6703 803.532 25.451C803.915 25.2317 804.344 25.122 804.82 25.122C805.077 25.122 805.343 25.164 805.618 25.248C805.894 25.3273 806.148 25.465 806.381 25.661C806.619 25.8523 806.811 26.1183 806.955 26.459C807.105 26.7997 807.179 27.2313 807.179 27.754V32.5H805.674V27.915C805.674 27.5183 805.607 27.208 805.471 26.984C805.341 26.76 805.168 26.6037 804.953 26.515C804.743 26.4217 804.519 26.375 804.281 26.375C804.067 26.375 803.843 26.417 803.609 26.501C803.376 26.585 803.178 26.725 803.014 26.921C802.851 27.117 802.769 27.383 802.769 27.719V32.5H801.271V27.593C801.271 27.327 801.199 27.103 801.054 26.921C800.914 26.739 800.737 26.6037 800.522 26.515C800.312 26.4217 800.102 26.375 799.892 26.375C799.659 26.375 799.426 26.4217 799.192 26.515C798.959 26.6083 798.763 26.7553 798.604 26.956C798.45 27.152 798.373 27.4063 798.373 27.719V32.5H796.875Z" fill="black"/>
<path d="M758.86 19.5V10.292H756.628V9.324C757.321 9.324 757.86 9.27333 758.244 9.172C758.628 9.07067 758.9 8.916 759.06 8.708C759.225 8.5 759.316 8.24133 759.332 7.932H760.388V19.5H758.86ZM767.223 7.772C768.477 7.772 769.474 8.276 770.215 9.284C770.962 10.2867 771.335 11.772 771.335 13.74C771.335 15.6973 770.965 17.1773 770.223 18.18C769.482 19.1773 768.477 19.676 767.207 19.676C765.943 19.676 764.941 19.18 764.199 18.188C763.458 17.1907 763.087 15.716 763.087 13.764C763.087 12.4467 763.258 11.3427 763.599 10.452C763.941 9.56133 764.421 8.892 765.039 8.444C765.658 7.996 766.386 7.772 767.223 7.772ZM767.223 18.396C768.05 18.396 768.674 18.0333 769.095 17.308C769.522 16.5773 769.735 15.3907 769.735 13.748C769.735 12.0733 769.519 10.868 769.087 10.132C768.661 9.39067 768.037 9.02 767.215 9.02C766.399 9.02 765.77 9.39333 765.327 10.14C764.89 10.8813 764.671 12.084 764.671 13.748C764.671 15.3853 764.89 16.5693 765.327 17.3C765.765 18.0307 766.397 18.396 767.223 18.396Z" fill="black"/>
<path d="M754.932 34.754V25.262H756.43L756.444 26.466C756.533 26.3073 756.647 26.151 756.787 25.997C756.927 25.8383 757.093 25.6937 757.284 25.563C757.48 25.4277 757.702 25.3203 757.949 25.241C758.201 25.1617 758.479 25.122 758.782 25.122C759.351 25.122 759.853 25.255 760.287 25.521C760.726 25.7823 761.066 26.186 761.309 26.732C761.556 27.2733 761.68 27.9617 761.68 28.797C761.68 29.637 761.556 30.3417 761.309 30.911C761.066 31.4803 760.719 31.912 760.266 32.206C759.813 32.4953 759.277 32.64 758.656 32.64C758.357 32.64 758.089 32.598 757.851 32.514C757.613 32.43 757.403 32.3203 757.221 32.185C757.039 32.045 756.883 31.8957 756.752 31.737C756.626 31.5737 756.521 31.4127 756.437 31.254V34.754H754.932ZM758.341 31.499C758.896 31.499 759.351 31.2843 759.706 30.855C760.065 30.421 760.245 29.7443 760.245 28.825C760.245 28.0363 760.079 27.4133 759.748 26.956C759.421 26.494 758.952 26.263 758.341 26.263C757.711 26.263 757.235 26.5033 756.913 26.984C756.591 27.46 756.43 28.0737 756.43 28.825C756.43 29.315 756.5 29.763 756.64 30.169C756.785 30.5703 756.999 30.8923 757.284 31.135C757.569 31.3777 757.921 31.499 758.341 31.499ZM762.875 32.5V25.262H764.331V26.305C764.537 25.9877 764.817 25.7123 765.171 25.479C765.526 25.241 765.983 25.122 766.543 25.122C766.805 25.122 767.068 25.1663 767.334 25.255C767.605 25.3437 767.852 25.4767 768.076 25.654C768.305 25.8267 768.485 26.0413 768.615 26.298C768.844 25.9527 769.15 25.6703 769.532 25.451C769.915 25.2317 770.344 25.122 770.82 25.122C771.077 25.122 771.343 25.164 771.618 25.248C771.894 25.3273 772.148 25.465 772.381 25.661C772.619 25.8523 772.811 26.1183 772.955 26.459C773.105 26.7997 773.179 27.2313 773.179 27.754V32.5H771.674V27.915C771.674 27.5183 771.607 27.208 771.471 26.984C771.341 26.76 771.168 26.6037 770.953 26.515C770.743 26.4217 770.519 26.375 770.281 26.375C770.067 26.375 769.843 26.417 769.609 26.501C769.376 26.585 769.178 26.725 769.014 26.921C768.851 27.117 768.769 27.383 768.769 27.719V32.5H767.271V27.593C767.271 27.327 767.199 27.103 767.054 26.921C766.914 26.739 766.737 26.6037 766.522 26.515C766.312 26.4217 766.102 26.375 765.892 26.375C765.659 26.375 765.426 26.4217 765.192 26.515C764.959 26.6083 764.763 26.7553 764.604 26.956C764.45 27.152 764.373 27.4063 764.373 27.719V32.5H762.875Z" fill="black"/>
<path d="M729.656 19.676C729.016 19.676 728.418 19.556 727.864 19.316C727.314 19.0707 726.853 18.724 726.48 18.276C726.112 17.828 725.885 17.292 725.8 16.668H727.24C727.373 17.196 727.65 17.6253 728.072 17.956C728.493 18.2813 729.005 18.444 729.608 18.444C730.29 18.444 730.874 18.2653 731.36 17.908C731.85 17.5507 732.216 16.9987 732.456 16.252C732.696 15.5053 732.786 14.548 732.728 13.38C732.594 13.7853 732.384 14.1427 732.096 14.452C731.808 14.756 731.461 14.996 731.056 15.172C730.65 15.348 730.202 15.436 729.712 15.436C728.949 15.436 728.277 15.2867 727.696 14.988C727.114 14.6893 726.661 14.2627 726.336 13.708C726.016 13.1533 725.856 12.4893 725.856 11.716C725.856 10.9427 726.016 10.26 726.336 9.668C726.656 9.076 727.114 8.612 727.712 8.276C728.309 7.94 729.018 7.772 729.84 7.772C730.736 7.772 731.512 8.004 732.168 8.468C732.824 8.92667 733.33 9.588 733.688 10.452C734.045 11.3107 734.224 12.3427 734.224 13.548C734.224 14.844 734.045 15.948 733.688 16.86C733.336 17.772 732.818 18.4707 732.136 18.956C731.458 19.436 730.632 19.676 729.656 19.676ZM729.872 14.18C730.298 14.18 730.704 14.0813 731.088 13.884C731.472 13.6867 731.784 13.4253 732.024 13.1C732.269 12.7693 732.392 12.4093 732.392 12.02C732.397 11.4227 732.296 10.8973 732.088 10.444C731.88 9.98533 731.584 9.628 731.2 9.372C730.816 9.11067 730.368 8.98 729.856 8.98C729.386 8.98 728.97 9.092 728.608 9.316C728.25 9.54 727.968 9.852 727.76 10.252C727.557 10.652 727.456 11.116 727.456 11.644C727.456 12.4173 727.661 13.0333 728.072 13.492C728.482 13.9507 729.082 14.18 729.872 14.18Z" fill="black"/>
<path d="M720.932 34.754V25.262H722.43L722.444 26.466C722.533 26.3073 722.647 26.151 722.787 25.997C722.927 25.8383 723.093 25.6937 723.284 25.563C723.48 25.4277 723.702 25.3203 723.949 25.241C724.201 25.1617 724.479 25.122 724.782 25.122C725.351 25.122 725.853 25.255 726.287 25.521C726.726 25.7823 727.066 26.186 727.309 26.732C727.556 27.2733 727.68 27.9617 727.68 28.797C727.68 29.637 727.556 30.3417 727.309 30.911C727.066 31.4803 726.719 31.912 726.266 32.206C725.813 32.4953 725.277 32.64 724.656 32.64C724.357 32.64 724.089 32.598 723.851 32.514C723.613 32.43 723.403 32.3203 723.221 32.185C723.039 32.045 722.883 31.8957 722.752 31.737C722.626 31.5737 722.521 31.4127 722.437 31.254V34.754H720.932ZM724.341 31.499C724.896 31.499 725.351 31.2843 725.706 30.855C726.065 30.421 726.245 29.7443 726.245 28.825C726.245 28.0363 726.079 27.4133 725.748 26.956C725.421 26.494 724.952 26.263 724.341 26.263C723.711 26.263 723.235 26.5033 722.913 26.984C722.591 27.46 722.43 28.0737 722.43 28.825C722.43 29.315 722.5 29.763 722.64 30.169C722.785 30.5703 722.999 30.8923 723.284 31.135C723.569 31.3777 723.921 31.499 724.341 31.499ZM728.875 32.5V25.262H730.331V26.305C730.537 25.9877 730.817 25.7123 731.171 25.479C731.526 25.241 731.983 25.122 732.543 25.122C732.805 25.122 733.068 25.1663 733.334 25.255C733.605 25.3437 733.852 25.4767 734.076 25.654C734.305 25.8267 734.485 26.0413 734.615 26.298C734.844 25.9527 735.15 25.6703 735.532 25.451C735.915 25.2317 736.344 25.122 736.82 25.122C737.077 25.122 737.343 25.164 737.618 25.248C737.894 25.3273 738.148 25.465 738.381 25.661C738.619 25.8523 738.811 26.1183 738.955 26.459C739.105 26.7997 739.179 27.2313 739.179 27.754V32.5H737.674V27.915C737.674 27.5183 737.607 27.208 737.471 26.984C737.341 26.76 737.168 26.6037 736.953 26.515C736.743 26.4217 736.519 26.375 736.281 26.375C736.067 26.375 735.843 26.417 735.609 26.501C735.376 26.585 735.178 26.725 735.014 26.921C734.851 27.117 734.769 27.383 734.769 27.719V32.5H733.271V27.593C733.271 27.327 733.199 27.103 733.054 26.921C732.914 26.739 732.737 26.6037 732.522 26.515C732.312 26.4217 732.102 26.375 731.892 26.375C731.659 26.375 731.426 26.4217 731.192 26.515C730.959 26.6083 730.763 26.7553 730.604 26.956C730.45 27.152 730.373 27.4063 730.373 27.719V32.5H728.875Z" fill="black"/>
<path d="M695.996 7.772C696.738 7.772 697.402 7.89467 697.988 8.14C698.575 8.38533 699.039 8.74267 699.38 9.212C699.722 9.68133 699.892 10.252 699.892 10.924C699.892 11.5533 699.722 12.0813 699.38 12.508C699.044 12.9347 698.61 13.26 698.076 13.484C698.466 13.5587 698.836 13.74 699.188 14.028C699.546 14.316 699.839 14.6653 700.068 15.076C700.298 15.4867 700.412 15.916 700.412 16.364C700.412 17.0307 700.228 17.612 699.86 18.108C699.498 18.604 698.986 18.9907 698.324 19.268C697.663 19.54 696.887 19.676 695.996 19.676C695.111 19.676 694.338 19.54 693.676 19.268C693.015 18.9907 692.5 18.604 692.132 18.108C691.77 17.612 691.588 17.0307 691.588 16.364C691.588 15.916 691.7 15.4867 691.924 15.076C692.154 14.6653 692.447 14.316 692.804 14.028C693.162 13.74 693.535 13.5587 693.924 13.484C693.396 13.26 692.959 12.9347 692.612 12.508C692.271 12.0813 692.1 11.5533 692.1 10.924C692.1 10.252 692.271 9.68133 692.612 9.212C692.954 8.74267 693.418 8.38533 694.004 8.14C694.596 7.89467 695.26 7.772 695.996 7.772ZM695.996 12.86C696.7 12.86 697.271 12.6867 697.708 12.34C698.151 11.9933 698.372 11.5107 698.372 10.892C698.372 10.268 698.151 9.77733 697.708 9.42C697.266 9.05733 696.695 8.876 695.996 8.876C695.298 8.876 694.727 9.05733 694.284 9.42C693.842 9.78267 693.62 10.2733 693.62 10.892C693.62 11.5107 693.842 11.9933 694.284 12.34C694.727 12.6867 695.298 12.86 695.996 12.86ZM695.996 18.476C696.855 18.476 697.54 18.284 698.052 17.9C698.564 17.5107 698.82 16.996 698.82 16.356C698.82 15.9347 698.703 15.5587 698.468 15.228C698.239 14.8973 697.914 14.6387 697.492 14.452C697.071 14.26 696.572 14.164 695.996 14.164C695.426 14.164 694.93 14.26 694.508 14.452C694.092 14.6387 693.767 14.8973 693.532 15.228C693.303 15.5587 693.188 15.9347 693.188 16.356C693.188 16.996 693.442 17.5107 693.948 17.9C694.46 18.284 695.143 18.476 695.996 18.476Z" fill="black"/>
<path d="M686.932 34.754V25.262H688.43L688.444 26.466C688.533 26.3073 688.647 26.151 688.787 25.997C688.927 25.8383 689.093 25.6937 689.284 25.563C689.48 25.4277 689.702 25.3203 689.949 25.241C690.201 25.1617 690.479 25.122 690.782 25.122C691.351 25.122 691.853 25.255 692.287 25.521C692.726 25.7823 693.066 26.186 693.309 26.732C693.556 27.2733 693.68 27.9617 693.68 28.797C693.68 29.637 693.556 30.3417 693.309 30.911C693.066 31.4803 692.719 31.912 692.266 32.206C691.813 32.4953 691.277 32.64 690.656 32.64C690.357 32.64 690.089 32.598 689.851 32.514C689.613 32.43 689.403 32.3203 689.221 32.185C689.039 32.045 688.883 31.8957 688.752 31.737C688.626 31.5737 688.521 31.4127 688.437 31.254V34.754H686.932ZM690.341 31.499C690.896 31.499 691.351 31.2843 691.706 30.855C692.065 30.421 692.245 29.7443 692.245 28.825C692.245 28.0363 692.079 27.4133 691.748 26.956C691.421 26.494 690.952 26.263 690.341 26.263C689.711 26.263 689.235 26.5033 688.913 26.984C688.591 27.46 688.43 28.0737 688.43 28.825C688.43 29.315 688.5 29.763 688.64 30.169C688.785 30.5703 688.999 30.8923 689.284 31.135C689.569 31.3777 689.921 31.499 690.341 31.499ZM694.875 32.5V25.262H696.331V26.305C696.537 25.9877 696.817 25.7123 697.171 25.479C697.526 25.241 697.983 25.122 698.543 25.122C698.805 25.122 699.068 25.1663 699.334 25.255C699.605 25.3437 699.852 25.4767 700.076 25.654C700.305 25.8267 700.485 26.0413 700.615 26.298C700.844 25.9527 701.15 25.6703 701.532 25.451C701.915 25.2317 702.344 25.122 702.82 25.122C703.077 25.122 703.343 25.164 703.618 25.248C703.894 25.3273 704.148 25.465 704.381 25.661C704.619 25.8523 704.811 26.1183 704.955 26.459C705.105 26.7997 705.179 27.2313 705.179 27.754V32.5H703.674V27.915C703.674 27.5183 703.607 27.208 703.471 26.984C703.341 26.76 703.168 26.6037 702.953 26.515C702.743 26.4217 702.519 26.375 702.281 26.375C702.067 26.375 701.843 26.417 701.609 26.501C701.376 26.585 701.178 26.725 701.014 26.921C700.851 27.117 700.769 27.383 700.769 27.719V32.5H699.271V27.593C699.271 27.327 699.199 27.103 699.054 26.921C698.914 26.739 698.737 26.6037 698.522 26.515C698.312 26.4217 698.102 26.375 697.892 26.375C697.659 26.375 697.426 26.4217 697.192 26.515C696.959 26.6083 696.763 26.7553 696.604 26.956C696.45 27.152 696.373 27.4063 696.373 27.719V32.5H694.875Z" fill="black"/>
<path d="M657.939 7.932H666.059V9.212C665.649 9.772 665.241 10.4093 664.835 11.124C664.435 11.8333 664.054 12.5773 663.691 13.356C663.329 14.1293 663.003 14.8947 662.715 15.652C662.427 16.404 662.187 17.1133 661.995 17.78C661.809 18.4413 661.689 19.0147 661.635 19.5H660.027C660.113 18.972 660.265 18.3187 660.483 17.54C660.707 16.7613 661.001 15.9107 661.363 14.988C661.726 14.06 662.163 13.1027 662.675 12.116C663.187 11.1293 663.774 10.1613 664.435 9.212H657.939V7.932Z" fill="white"/>
<path d="M652.932 34.754V25.262H654.43L654.444 26.466C654.533 26.3073 654.647 26.151 654.787 25.997C654.927 25.8383 655.093 25.6937 655.284 25.563C655.48 25.4277 655.702 25.3203 655.949 25.241C656.201 25.1617 656.479 25.122 656.782 25.122C657.351 25.122 657.853 25.255 658.287 25.521C658.726 25.7823 659.066 26.186 659.309 26.732C659.556 27.2733 659.68 27.9617 659.68 28.797C659.68 29.637 659.556 30.3417 659.309 30.911C659.066 31.4803 658.719 31.912 658.266 32.206C657.813 32.4953 657.277 32.64 656.656 32.64C656.357 32.64 656.089 32.598 655.851 32.514C655.613 32.43 655.403 32.3203 655.221 32.185C655.039 32.045 654.883 31.8957 654.752 31.737C654.626 31.5737 654.521 31.4127 654.437 31.254V34.754H652.932ZM656.341 31.499C656.896 31.499 657.351 31.2843 657.706 30.855C658.065 30.421 658.245 29.7443 658.245 28.825C658.245 28.0363 658.079 27.4133 657.748 26.956C657.421 26.494 656.952 26.263 656.341 26.263C655.711 26.263 655.235 26.5033 654.913 26.984C654.591 27.46 654.43 28.0737 654.43 28.825C654.43 29.315 654.5 29.763 654.64 30.169C654.785 30.5703 654.999 30.8923 655.284 31.135C655.569 31.3777 655.921 31.499 656.341 31.499ZM660.875 32.5V25.262H662.331V26.305C662.537 25.9877 662.817 25.7123 663.171 25.479C663.526 25.241 663.983 25.122 664.543 25.122C664.805 25.122 665.068 25.1663 665.334 25.255C665.605 25.3437 665.852 25.4767 666.076 25.654C666.305 25.8267 666.485 26.0413 666.615 26.298C666.844 25.9527 667.15 25.6703 667.532 25.451C667.915 25.2317 668.344 25.122 668.82 25.122C669.077 25.122 669.343 25.164 669.618 25.248C669.894 25.3273 670.148 25.465 670.381 25.661C670.619 25.8523 670.811 26.1183 670.955 26.459C671.105 26.7997 671.179 27.2313 671.179 27.754V32.5H669.674V27.915C669.674 27.5183 669.607 27.208 669.471 26.984C669.341 26.76 669.168 26.6037 668.953 26.515C668.743 26.4217 668.519 26.375 668.281 26.375C668.067 26.375 667.843 26.417 667.609 26.501C667.376 26.585 667.178 26.725 667.014 26.921C666.851 27.117 666.769 27.383 666.769 27.719V32.5H665.271V27.593C665.271 27.327 665.199 27.103 665.054 26.921C664.914 26.739 664.737 26.6037 664.522 26.515C664.312 26.4217 664.102 26.375 663.892 26.375C663.659 26.375 663.426 26.4217 663.192 26.515C662.959 26.6083 662.763 26.7553 662.604 26.956C662.45 27.152 662.373 27.4063 662.373 27.719V32.5H660.875Z" fill="white"/>
<path d="M628.319 7.772C628.959 7.772 629.549 7.892 630.087 8.132C630.631 8.372 631.082 8.716 631.439 9.164C631.797 9.612 632.018 10.1533 632.103 10.788H630.711C630.557 10.2387 630.277 9.804 629.871 9.484C629.466 9.164 628.957 9.004 628.343 9.004C627.661 9.004 627.09 9.19867 626.631 9.588C626.178 9.972 625.847 10.5373 625.639 11.284C625.431 12.0253 625.359 12.9373 625.423 14.02C625.567 13.6307 625.786 13.2893 626.079 12.996C626.378 12.6973 626.725 12.468 627.119 12.308C627.514 12.1427 627.941 12.06 628.399 12.06C629.162 12.06 629.829 12.2093 630.399 12.508C630.97 12.8013 631.415 13.2227 631.735 13.772C632.055 14.316 632.215 14.9667 632.215 15.724C632.215 16.4973 632.05 17.1827 631.719 17.78C631.394 18.372 630.93 18.836 630.327 19.172C629.725 19.508 629.013 19.676 628.191 19.676C627.295 19.676 626.517 19.444 625.855 18.98C625.199 18.516 624.69 17.8547 624.327 16.996C623.97 16.132 623.791 15.0973 623.791 13.892C623.791 12.6547 623.965 11.5773 624.311 10.66C624.663 9.74267 625.175 9.03333 625.847 8.532C626.519 8.02533 627.343 7.772 628.319 7.772ZM628.159 13.26C627.738 13.26 627.333 13.3613 626.943 13.564C626.559 13.7613 626.245 14.0227 625.999 14.348C625.759 14.6733 625.639 15.0333 625.639 15.428C625.634 16.0147 625.735 16.5373 625.943 16.996C626.157 17.4493 626.455 17.8067 626.839 18.068C627.223 18.324 627.669 18.452 628.175 18.452C628.65 18.452 629.071 18.34 629.439 18.116C629.807 17.892 630.095 17.58 630.303 17.18C630.517 16.78 630.623 16.3187 630.623 15.796C630.623 15.268 630.527 14.8147 630.335 14.436C630.149 14.0573 629.871 13.7667 629.503 13.564C629.135 13.3613 628.687 13.26 628.159 13.26Z" fill="white"/>
<path d="M618.932 34.754V25.262H620.43L620.444 26.466C620.533 26.3073 620.647 26.151 620.787 25.997C620.927 25.8383 621.093 25.6937 621.284 25.563C621.48 25.4277 621.702 25.3203 621.949 25.241C622.201 25.1617 622.479 25.122 622.782 25.122C623.351 25.122 623.853 25.255 624.287 25.521C624.726 25.7823 625.066 26.186 625.309 26.732C625.556 27.2733 625.68 27.9617 625.68 28.797C625.68 29.637 625.556 30.3417 625.309 30.911C625.066 31.4803 624.719 31.912 624.266 32.206C623.813 32.4953 623.277 32.64 622.656 32.64C622.357 32.64 622.089 32.598 621.851 32.514C621.613 32.43 621.403 32.3203 621.221 32.185C621.039 32.045 620.883 31.8957 620.752 31.737C620.626 31.5737 620.521 31.4127 620.437 31.254V34.754H618.932ZM622.341 31.499C622.896 31.499 623.351 31.2843 623.706 30.855C624.065 30.421 624.245 29.7443 624.245 28.825C624.245 28.0363 624.079 27.4133 623.748 26.956C623.421 26.494 622.952 26.263 622.341 26.263C621.711 26.263 621.235 26.5033 620.913 26.984C620.591 27.46 620.43 28.0737 620.43 28.825C620.43 29.315 620.5 29.763 620.64 30.169C620.785 30.5703 620.999 30.8923 621.284 31.135C621.569 31.3777 621.921 31.499 622.341 31.499ZM626.875 32.5V25.262H628.331V26.305C628.537 25.9877 628.817 25.7123 629.171 25.479C629.526 25.241 629.983 25.122 630.543 25.122C630.805 25.122 631.068 25.1663 631.334 25.255C631.605 25.3437 631.852 25.4767 632.076 25.654C632.305 25.8267 632.485 26.0413 632.615 26.298C632.844 25.9527 633.15 25.6703 633.532 25.451C633.915 25.2317 634.344 25.122 634.82 25.122C635.077 25.122 635.343 25.164 635.618 25.248C635.894 25.3273 636.148 25.465 636.381 25.661C636.619 25.8523 636.811 26.1183 636.955 26.459C637.105 26.7997 637.179 27.2313 637.179 27.754V32.5H635.674V27.915C635.674 27.5183 635.607 27.208 635.471 26.984C635.341 26.76 635.168 26.6037 634.953 26.515C634.743 26.4217 634.519 26.375 634.281 26.375C634.067 26.375 633.843 26.417 633.609 26.501C633.376 26.585 633.178 26.725 633.014 26.921C632.851 27.117 632.769 27.383 632.769 27.719V32.5H631.271V27.593C631.271 27.327 631.199 27.103 631.054 26.921C630.914 26.739 630.737 26.6037 630.522 26.515C630.312 26.4217 630.102 26.375 629.892 26.375C629.659 26.375 629.426 26.4217 629.192 26.515C628.959 26.6083 628.763 26.7553 628.604 26.956C628.45 27.152 628.373 27.4063 628.373 27.719V32.5H626.875Z" fill="white"/>
<path d="M590.747 7.932H597.651L597.611 9.212H592.011L591.715 12.948C592.099 12.5907 592.518 12.3373 592.971 12.188C593.43 12.0333 593.926 11.956 594.459 11.956C595.158 11.956 595.8 12.1 596.387 12.388C596.979 12.6707 597.454 13.092 597.811 13.652C598.168 14.2067 598.347 14.8947 598.347 15.716C598.347 16.516 598.174 17.212 597.827 17.804C597.48 18.396 596.992 18.8573 596.363 19.188C595.734 19.5133 594.995 19.676 594.147 19.676C593.432 19.676 592.771 19.5507 592.163 19.3C591.555 19.0493 591.032 18.7 590.595 18.252C590.163 17.804 589.846 17.2893 589.643 16.708L590.923 16.172C591.115 16.6093 591.355 16.9987 591.643 17.34C591.936 17.6813 592.283 17.948 592.683 18.14C593.083 18.332 593.536 18.428 594.043 18.428C594.864 18.428 595.523 18.1907 596.019 17.716C596.52 17.236 596.771 16.5853 596.771 15.764C596.771 15.252 596.654 14.8067 596.419 14.428C596.184 14.044 595.867 13.7453 595.467 13.532C595.072 13.3187 594.635 13.212 594.155 13.212C593.84 13.212 593.547 13.2413 593.275 13.3C593.003 13.3533 592.734 13.46 592.467 13.62C592.2 13.78 591.92 14.0227 591.627 14.348C591.595 14.364 591.571 14.372 591.555 14.372C591.539 14.3667 591.512 14.356 591.475 14.34L590.227 13.948L590.747 7.932Z" fill="white"/>
<path d="M584.932 34.754V25.262H586.43L586.444 26.466C586.533 26.3073 586.647 26.151 586.787 25.997C586.927 25.8383 587.093 25.6937 587.284 25.563C587.48 25.4277 587.702 25.3203 587.949 25.241C588.201 25.1617 588.479 25.122 588.782 25.122C589.351 25.122 589.853 25.255 590.287 25.521C590.726 25.7823 591.066 26.186 591.309 26.732C591.556 27.2733 591.68 27.9617 591.68 28.797C591.68 29.637 591.556 30.3417 591.309 30.911C591.066 31.4803 590.719 31.912 590.266 32.206C589.813 32.4953 589.277 32.64 588.656 32.64C588.357 32.64 588.089 32.598 587.851 32.514C587.613 32.43 587.403 32.3203 587.221 32.185C587.039 32.045 586.883 31.8957 586.752 31.737C586.626 31.5737 586.521 31.4127 586.437 31.254V34.754H584.932ZM588.341 31.499C588.896 31.499 589.351 31.2843 589.706 30.855C590.065 30.421 590.245 29.7443 590.245 28.825C590.245 28.0363 590.079 27.4133 589.748 26.956C589.421 26.494 588.952 26.263 588.341 26.263C587.711 26.263 587.235 26.5033 586.913 26.984C586.591 27.46 586.43 28.0737 586.43 28.825C586.43 29.315 586.5 29.763 586.64 30.169C586.785 30.5703 586.999 30.8923 587.284 31.135C587.569 31.3777 587.921 31.499 588.341 31.499ZM592.875 32.5V25.262H594.331V26.305C594.537 25.9877 594.817 25.7123 595.171 25.479C595.526 25.241 595.983 25.122 596.543 25.122C596.805 25.122 597.068 25.1663 597.334 25.255C597.605 25.3437 597.852 25.4767 598.076 25.654C598.305 25.8267 598.485 26.0413 598.615 26.298C598.844 25.9527 599.15 25.6703 599.532 25.451C599.915 25.2317 600.344 25.122 600.82 25.122C601.077 25.122 601.343 25.164 601.618 25.248C601.894 25.3273 602.148 25.465 602.381 25.661C602.619 25.8523 602.811 26.1183 602.955 26.459C603.105 26.7997 603.179 27.2313 603.179 27.754V32.5H601.674V27.915C601.674 27.5183 601.607 27.208 601.471 26.984C601.341 26.76 601.168 26.6037 600.953 26.515C600.743 26.4217 600.519 26.375 600.281 26.375C600.067 26.375 599.843 26.417 599.609 26.501C599.376 26.585 599.178 26.725 599.014 26.921C598.851 27.117 598.769 27.383 598.769 27.719V32.5H597.271V27.593C597.271 27.327 597.199 27.103 597.054 26.921C596.914 26.739 596.737 26.6037 596.522 26.515C596.312 26.4217 596.102 26.375 595.892 26.375C595.659 26.375 595.426 26.4217 595.192 26.515C594.959 26.6083 594.763 26.7553 594.604 26.956C594.45 27.152 594.373 27.4063 594.373 27.719V32.5H592.875Z" fill="white"/>
<path d="M561.105 7.932H562.609V15.244H564.529V16.548H562.609V19.5H561.161V16.548H555.713V15.196L561.105 7.932ZM557.129 15.244H561.129V9.876L557.129 15.244Z" fill="white"/>
<path d="M550.932 34.754V25.262H552.43L552.444 26.466C552.533 26.3073 552.647 26.151 552.787 25.997C552.927 25.8383 553.093 25.6937 553.284 25.563C553.48 25.4277 553.702 25.3203 553.949 25.241C554.201 25.1617 554.479 25.122 554.782 25.122C555.351 25.122 555.853 25.255 556.287 25.521C556.726 25.7823 557.066 26.186 557.309 26.732C557.556 27.2733 557.68 27.9617 557.68 28.797C557.68 29.637 557.556 30.3417 557.309 30.911C557.066 31.4803 556.719 31.912 556.266 32.206C555.813 32.4953 555.277 32.64 554.656 32.64C554.357 32.64 554.089 32.598 553.851 32.514C553.613 32.43 553.403 32.3203 553.221 32.185C553.039 32.045 552.883 31.8957 552.752 31.737C552.626 31.5737 552.521 31.4127 552.437 31.254V34.754H550.932ZM554.341 31.499C554.896 31.499 555.351 31.2843 555.706 30.855C556.065 30.421 556.245 29.7443 556.245 28.825C556.245 28.0363 556.079 27.4133 555.748 26.956C555.421 26.494 554.952 26.263 554.341 26.263C553.711 26.263 553.235 26.5033 552.913 26.984C552.591 27.46 552.43 28.0737 552.43 28.825C552.43 29.315 552.5 29.763 552.64 30.169C552.785 30.5703 552.999 30.8923 553.284 31.135C553.569 31.3777 553.921 31.499 554.341 31.499ZM558.875 32.5V25.262H560.331V26.305C560.537 25.9877 560.817 25.7123 561.171 25.479C561.526 25.241 561.983 25.122 562.543 25.122C562.805 25.122 563.068 25.1663 563.334 25.255C563.605 25.3437 563.852 25.4767 564.076 25.654C564.305 25.8267 564.485 26.0413 564.615 26.298C564.844 25.9527 565.15 25.6703 565.532 25.451C565.915 25.2317 566.344 25.122 566.82 25.122C567.077 25.122 567.343 25.164 567.618 25.248C567.894 25.3273 568.148 25.465 568.381 25.661C568.619 25.8523 568.811 26.1183 568.955 26.459C569.105 26.7997 569.179 27.2313 569.179 27.754V32.5H567.674V27.915C567.674 27.5183 567.607 27.208 567.471 26.984C567.341 26.76 567.168 26.6037 566.953 26.515C566.743 26.4217 566.519 26.375 566.281 26.375C566.067 26.375 565.843 26.417 565.609 26.501C565.376 26.585 565.178 26.725 565.014 26.921C564.851 27.117 564.769 27.383 564.769 27.719V32.5H563.271V27.593C563.271 27.327 563.199 27.103 563.054 26.921C562.914 26.739 562.737 26.6037 562.522 26.515C562.312 26.4217 562.102 26.375 561.892 26.375C561.659 26.375 561.426 26.4217 561.192 26.515C560.959 26.6083 560.763 26.7553 560.604 26.956C560.45 27.152 560.373 27.4063 560.373 27.719V32.5H558.875Z" fill="white"/>
<path d="M521.881 11.3C521.881 10.5533 522.062 9.91867 522.425 9.396C522.788 8.868 523.27 8.46533 523.873 8.188C524.481 7.91067 525.15 7.772 525.881 7.772C526.681 7.772 527.388 7.88933 528.001 8.124C528.614 8.35333 529.094 8.68933 529.441 9.132C529.788 9.57467 529.961 10.116 529.961 10.756C529.961 11.3267 529.78 11.844 529.417 12.308C529.054 12.7667 528.5 13.1267 527.753 13.388C528.26 13.5267 528.702 13.7293 529.081 13.996C529.46 14.2627 529.753 14.5907 529.961 14.98C530.169 15.364 530.273 15.8067 530.273 16.308C530.273 16.836 530.161 17.3107 529.937 17.732C529.718 18.148 529.409 18.5027 529.009 18.796C528.609 19.084 528.137 19.3053 527.593 19.46C527.049 19.6093 526.457 19.6813 525.817 19.676C525.022 19.6707 524.321 19.524 523.713 19.236C523.11 18.948 522.636 18.5453 522.289 18.028C521.942 17.5053 521.756 16.8867 521.729 16.172H523.209C523.321 16.892 523.614 17.444 524.089 17.828C524.564 18.212 525.158 18.404 525.873 18.404C526.438 18.404 526.932 18.316 527.353 18.14C527.774 17.9587 528.1 17.7107 528.329 17.396C528.558 17.0813 528.673 16.7133 528.673 16.292C528.673 15.828 528.545 15.436 528.289 15.116C528.033 14.796 527.684 14.5533 527.241 14.388C526.798 14.2173 526.305 14.1293 525.761 14.124L524.721 14.1V12.844L525.713 12.82C526.22 12.8093 526.673 12.7133 527.073 12.532C527.473 12.3453 527.788 12.1027 528.017 11.804C528.252 11.5 528.369 11.1667 528.369 10.804C528.369 10.484 528.27 10.188 528.073 9.916C527.876 9.63867 527.59 9.41733 527.217 9.252C526.849 9.08667 526.401 9.004 525.873 9.004C525.457 9.004 525.06 9.08667 524.681 9.252C524.302 9.412 523.99 9.66 523.745 9.996C523.5 10.332 523.369 10.7667 523.353 11.3H521.881Z" fill="white"/>
<path d="M516.932 34.754V25.262H518.43L518.444 26.466C518.533 26.3073 518.647 26.151 518.787 25.997C518.927 25.8383 519.093 25.6937 519.284 25.563C519.48 25.4277 519.702 25.3203 519.949 25.241C520.201 25.1617 520.479 25.122 520.782 25.122C521.351 25.122 521.853 25.255 522.287 25.521C522.726 25.7823 523.066 26.186 523.309 26.732C523.556 27.2733 523.68 27.9617 523.68 28.797C523.68 29.637 523.556 30.3417 523.309 30.911C523.066 31.4803 522.719 31.912 522.266 32.206C521.813 32.4953 521.277 32.64 520.656 32.64C520.357 32.64 520.089 32.598 519.851 32.514C519.613 32.43 519.403 32.3203 519.221 32.185C519.039 32.045 518.883 31.8957 518.752 31.737C518.626 31.5737 518.521 31.4127 518.437 31.254V34.754H516.932ZM520.341 31.499C520.896 31.499 521.351 31.2843 521.706 30.855C522.065 30.421 522.245 29.7443 522.245 28.825C522.245 28.0363 522.079 27.4133 521.748 26.956C521.421 26.494 520.952 26.263 520.341 26.263C519.711 26.263 519.235 26.5033 518.913 26.984C518.591 27.46 518.43 28.0737 518.43 28.825C518.43 29.315 518.5 29.763 518.64 30.169C518.785 30.5703 518.999 30.8923 519.284 31.135C519.569 31.3777 519.921 31.499 520.341 31.499ZM524.875 32.5V25.262H526.331V26.305C526.537 25.9877 526.817 25.7123 527.171 25.479C527.526 25.241 527.983 25.122 528.543 25.122C528.805 25.122 529.068 25.1663 529.334 25.255C529.605 25.3437 529.852 25.4767 530.076 25.654C530.305 25.8267 530.485 26.0413 530.615 26.298C530.844 25.9527 531.15 25.6703 531.532 25.451C531.915 25.2317 532.344 25.122 532.82 25.122C533.077 25.122 533.343 25.164 533.618 25.248C533.894 25.3273 534.148 25.465 534.381 25.661C534.619 25.8523 534.811 26.1183 534.955 26.459C535.105 26.7997 535.179 27.2313 535.179 27.754V32.5H533.674V27.915C533.674 27.5183 533.607 27.208 533.471 26.984C533.341 26.76 533.168 26.6037 532.953 26.515C532.743 26.4217 532.519 26.375 532.281 26.375C532.067 26.375 531.843 26.417 531.609 26.501C531.376 26.585 531.178 26.725 531.014 26.921C530.851 27.117 530.769 27.383 530.769 27.719V32.5H529.271V27.593C529.271 27.327 529.199 27.103 529.054 26.921C528.914 26.739 528.737 26.6037 528.522 26.515C528.312 26.4217 528.102 26.375 527.892 26.375C527.659 26.375 527.426 26.4217 527.192 26.515C526.959 26.6083 526.763 26.7553 526.604 26.956C526.45 27.152 526.373 27.4063 526.373 27.719V32.5H524.875Z" fill="white"/>
<path d="M488.226 19.5V18.596V18.124C488.226 17.532 488.336 17.02 488.554 16.588C488.778 16.156 489.072 15.78 489.434 15.46C489.802 15.1347 490.202 14.844 490.634 14.588C491.072 14.332 491.506 14.0867 491.938 13.852C492.376 13.612 492.776 13.364 493.138 13.108C493.501 12.8467 493.792 12.5533 494.01 12.228C494.234 11.8973 494.346 11.508 494.346 11.06C494.346 10.4733 494.138 9.996 493.722 9.628C493.312 9.26 492.754 9.076 492.05 9.076C491.293 9.076 490.685 9.28933 490.226 9.716C489.768 10.1427 489.509 10.7107 489.45 11.42H487.978C487.994 10.7533 488.16 10.1453 488.474 9.596C488.789 9.04133 489.25 8.59867 489.858 8.268C490.466 7.93733 491.216 7.772 492.106 7.772C492.88 7.772 493.552 7.91067 494.122 8.188C494.693 8.46 495.133 8.844 495.442 9.34C495.757 9.83067 495.914 10.404 495.914 11.06C495.914 11.6573 495.805 12.1693 495.586 12.596C495.368 13.0227 495.077 13.3933 494.714 13.708C494.357 14.0173 493.965 14.2947 493.538 14.54C493.112 14.7853 492.682 15.0227 492.25 15.252C491.818 15.476 491.424 15.7133 491.066 15.964C490.709 16.2093 490.421 16.492 490.202 16.812C489.984 17.132 489.874 17.5133 489.874 17.956V18.188H495.978V19.5H488.226Z" fill="white"/>
<path d="M482.932 34.754V25.262H484.43L484.444 26.466C484.533 26.3073 484.647 26.151 484.787 25.997C484.927 25.8383 485.093 25.6937 485.284 25.563C485.48 25.4277 485.702 25.3203 485.949 25.241C486.201 25.1617 486.479 25.122 486.782 25.122C487.351 25.122 487.853 25.255 488.287 25.521C488.726 25.7823 489.066 26.186 489.309 26.732C489.556 27.2733 489.68 27.9617 489.68 28.797C489.68 29.637 489.556 30.3417 489.309 30.911C489.066 31.4803 488.719 31.912 488.266 32.206C487.813 32.4953 487.277 32.64 486.656 32.64C486.357 32.64 486.089 32.598 485.851 32.514C485.613 32.43 485.403 32.3203 485.221 32.185C485.039 32.045 484.883 31.8957 484.752 31.737C484.626 31.5737 484.521 31.4127 484.437 31.254V34.754H482.932ZM486.341 31.499C486.896 31.499 487.351 31.2843 487.706 30.855C488.065 30.421 488.245 29.7443 488.245 28.825C488.245 28.0363 488.079 27.4133 487.748 26.956C487.421 26.494 486.952 26.263 486.341 26.263C485.711 26.263 485.235 26.5033 484.913 26.984C484.591 27.46 484.43 28.0737 484.43 28.825C484.43 29.315 484.5 29.763 484.64 30.169C484.785 30.5703 484.999 30.8923 485.284 31.135C485.569 31.3777 485.921 31.499 486.341 31.499ZM490.875 32.5V25.262H492.331V26.305C492.537 25.9877 492.817 25.7123 493.171 25.479C493.526 25.241 493.983 25.122 494.543 25.122C494.805 25.122 495.068 25.1663 495.334 25.255C495.605 25.3437 495.852 25.4767 496.076 25.654C496.305 25.8267 496.485 26.0413 496.615 26.298C496.844 25.9527 497.15 25.6703 497.532 25.451C497.915 25.2317 498.344 25.122 498.82 25.122C499.077 25.122 499.343 25.164 499.618 25.248C499.894 25.3273 500.148 25.465 500.381 25.661C500.619 25.8523 500.811 26.1183 500.955 26.459C501.105 26.7997 501.179 27.2313 501.179 27.754V32.5H499.674V27.915C499.674 27.5183 499.607 27.208 499.471 26.984C499.341 26.76 499.168 26.6037 498.953 26.515C498.743 26.4217 498.519 26.375 498.281 26.375C498.067 26.375 497.843 26.417 497.609 26.501C497.376 26.585 497.178 26.725 497.014 26.921C496.851 27.117 496.769 27.383 496.769 27.719V32.5H495.271V27.593C495.271 27.327 495.199 27.103 495.054 26.921C494.914 26.739 494.737 26.6037 494.522 26.515C494.312 26.4217 494.102 26.375 493.892 26.375C493.659 26.375 493.426 26.4217 493.192 26.515C492.959 26.6083 492.763 26.7553 492.604 26.956C492.45 27.152 492.373 27.4063 492.373 27.719V32.5H490.875Z" fill="white"/>
<path d="M457.718 19.5V10.292H455.486V9.324C456.18 9.324 456.718 9.27333 457.102 9.172C457.486 9.07067 457.758 8.916 457.918 8.708C458.084 8.5 458.174 8.24133 458.19 7.932H459.246V19.5H457.718Z" fill="white"/>
<path d="M448.932 34.754V25.262H450.43L450.444 26.466C450.533 26.3073 450.647 26.151 450.787 25.997C450.927 25.8383 451.093 25.6937 451.284 25.563C451.48 25.4277 451.702 25.3203 451.949 25.241C452.201 25.1617 452.479 25.122 452.782 25.122C453.351 25.122 453.853 25.255 454.287 25.521C454.726 25.7823 455.066 26.186 455.309 26.732C455.556 27.2733 455.68 27.9617 455.68 28.797C455.68 29.637 455.556 30.3417 455.309 30.911C455.066 31.4803 454.719 31.912 454.266 32.206C453.813 32.4953 453.277 32.64 452.656 32.64C452.357 32.64 452.089 32.598 451.851 32.514C451.613 32.43 451.403 32.3203 451.221 32.185C451.039 32.045 450.883 31.8957 450.752 31.737C450.626 31.5737 450.521 31.4127 450.437 31.254V34.754H448.932ZM452.341 31.499C452.896 31.499 453.351 31.2843 453.706 30.855C454.065 30.421 454.245 29.7443 454.245 28.825C454.245 28.0363 454.079 27.4133 453.748 26.956C453.421 26.494 452.952 26.263 452.341 26.263C451.711 26.263 451.235 26.5033 450.913 26.984C450.591 27.46 450.43 28.0737 450.43 28.825C450.43 29.315 450.5 29.763 450.64 30.169C450.785 30.5703 450.999 30.8923 451.284 31.135C451.569 31.3777 451.921 31.499 452.341 31.499ZM456.875 32.5V25.262H458.331V26.305C458.537 25.9877 458.817 25.7123 459.171 25.479C459.526 25.241 459.983 25.122 460.543 25.122C460.805 25.122 461.068 25.1663 461.334 25.255C461.605 25.3437 461.852 25.4767 462.076 25.654C462.305 25.8267 462.485 26.0413 462.615 26.298C462.844 25.9527 463.15 25.6703 463.532 25.451C463.915 25.2317 464.344 25.122 464.82 25.122C465.077 25.122 465.343 25.164 465.618 25.248C465.894 25.3273 466.148 25.465 466.381 25.661C466.619 25.8523 466.811 26.1183 466.955 26.459C467.105 26.7997 467.179 27.2313 467.179 27.754V32.5H465.674V27.915C465.674 27.5183 465.607 27.208 465.471 26.984C465.341 26.76 465.168 26.6037 464.953 26.515C464.743 26.4217 464.519 26.375 464.281 26.375C464.067 26.375 463.843 26.417 463.609 26.501C463.376 26.585 463.178 26.725 463.014 26.921C462.851 27.117 462.769 27.383 462.769 27.719V32.5H461.271V27.593C461.271 27.327 461.199 27.103 461.054 26.921C460.914 26.739 460.737 26.6037 460.522 26.515C460.312 26.4217 460.102 26.375 459.892 26.375C459.659 26.375 459.426 26.4217 459.192 26.515C458.959 26.6083 458.763 26.7553 458.604 26.956C458.45 27.152 458.373 27.4063 458.373 27.719V32.5H456.875Z" fill="white"/>
<path d="M418.993 19.5V10.292H416.761V9.324C417.454 9.324 417.993 9.27333 418.377 9.172C418.761 9.07067 419.033 8.916 419.193 8.708C419.358 8.5 419.449 8.24133 419.465 7.932H420.521V19.5H418.993ZM423.444 19.5V18.596V18.124C423.444 17.532 423.554 17.02 423.772 16.588C423.996 16.156 424.29 15.78 424.652 15.46C425.02 15.1347 425.42 14.844 425.852 14.588C426.29 14.332 426.724 14.0867 427.156 13.852C427.594 13.612 427.994 13.364 428.356 13.108C428.719 12.8467 429.01 12.5533 429.228 12.228C429.452 11.8973 429.564 11.508 429.564 11.06C429.564 10.4733 429.356 9.996 428.94 9.628C428.53 9.26 427.972 9.076 427.268 9.076C426.511 9.076 425.903 9.28933 425.444 9.716C424.986 10.1427 424.727 10.7107 424.668 11.42H423.196C423.212 10.7533 423.378 10.1453 423.692 9.596C424.007 9.04133 424.468 8.59867 425.076 8.268C425.684 7.93733 426.434 7.772 427.324 7.772C428.098 7.772 428.77 7.91067 429.34 8.188C429.911 8.46 430.351 8.844 430.66 9.34C430.975 9.83067 431.132 10.404 431.132 11.06C431.132 11.6573 431.023 12.1693 430.804 12.596C430.586 13.0227 430.295 13.3933 429.932 13.708C429.575 14.0173 429.183 14.2947 428.756 14.54C428.33 14.7853 427.9 15.0227 427.468 15.252C427.036 15.476 426.642 15.7133 426.284 15.964C425.927 16.2093 425.639 16.492 425.42 16.812C425.202 17.132 425.092 17.5133 425.092 17.956V18.188H431.196V19.5H423.444Z" fill="white"/>
<path d="M414.932 34.754V25.262H416.43L416.444 26.466C416.533 26.3073 416.647 26.151 416.787 25.997C416.927 25.8383 417.093 25.6937 417.284 25.563C417.48 25.4277 417.702 25.3203 417.949 25.241C418.201 25.1617 418.479 25.122 418.782 25.122C419.351 25.122 419.853 25.255 420.287 25.521C420.726 25.7823 421.066 26.186 421.309 26.732C421.556 27.2733 421.68 27.9617 421.68 28.797C421.68 29.637 421.556 30.3417 421.309 30.911C421.066 31.4803 420.719 31.912 420.266 32.206C419.813 32.4953 419.277 32.64 418.656 32.64C418.357 32.64 418.089 32.598 417.851 32.514C417.613 32.43 417.403 32.3203 417.221 32.185C417.039 32.045 416.883 31.8957 416.752 31.737C416.626 31.5737 416.521 31.4127 416.437 31.254V34.754H414.932ZM418.341 31.499C418.896 31.499 419.351 31.2843 419.706 30.855C420.065 30.421 420.245 29.7443 420.245 28.825C420.245 28.0363 420.079 27.4133 419.748 26.956C419.421 26.494 418.952 26.263 418.341 26.263C417.711 26.263 417.235 26.5033 416.913 26.984C416.591 27.46 416.43 28.0737 416.43 28.825C416.43 29.315 416.5 29.763 416.64 30.169C416.785 30.5703 416.999 30.8923 417.284 31.135C417.569 31.3777 417.921 31.499 418.341 31.499ZM422.875 32.5V25.262H424.331V26.305C424.537 25.9877 424.817 25.7123 425.171 25.479C425.526 25.241 425.983 25.122 426.543 25.122C426.805 25.122 427.068 25.1663 427.334 25.255C427.605 25.3437 427.852 25.4767 428.076 25.654C428.305 25.8267 428.485 26.0413 428.615 26.298C428.844 25.9527 429.15 25.6703 429.532 25.451C429.915 25.2317 430.344 25.122 430.82 25.122C431.077 25.122 431.343 25.164 431.618 25.248C431.894 25.3273 432.148 25.465 432.381 25.661C432.619 25.8523 432.811 26.1183 432.955 26.459C433.105 26.7997 433.179 27.2313 433.179 27.754V32.5H431.674V27.915C431.674 27.5183 431.607 27.208 431.471 26.984C431.341 26.76 431.168 26.6037 430.953 26.515C430.743 26.4217 430.519 26.375 430.281 26.375C430.067 26.375 429.843 26.417 429.609 26.501C429.376 26.585 429.178 26.725 429.014 26.921C428.851 27.117 428.769 27.383 428.769 27.719V32.5H427.271V27.593C427.271 27.327 427.199 27.103 427.054 26.921C426.914 26.739 426.737 26.6037 426.522 26.515C426.312 26.4217 426.102 26.375 425.892 26.375C425.659 26.375 425.426 26.4217 425.192 26.515C424.959 26.6083 424.763 26.7553 424.604 26.956C424.45 27.152 424.373 27.4063 424.373 27.719V32.5H422.875Z" fill="white"/>
<path d="M386.5 19.5V10.292H384.268V9.324C384.962 9.324 385.5 9.27333 385.884 9.172C386.268 9.07067 386.54 8.916 386.7 8.708C386.866 8.5 386.956 8.24133 386.972 7.932H388.028V19.5H386.5ZM392.936 19.5V10.292H390.704V9.324C391.397 9.324 391.936 9.27333 392.32 9.172C392.704 9.07067 392.976 8.916 393.136 8.708C393.301 8.5 393.392 8.24133 393.408 7.932H394.464V19.5H392.936Z" fill="white"/>
<path d="M383.167 32.64C382.7 32.64 382.285 32.556 381.921 32.388C381.562 32.22 381.279 31.9773 381.074 31.66C380.869 31.3427 380.766 30.96 380.766 30.512C380.766 29.7093 381.051 29.1097 381.62 28.713C382.189 28.3163 383.097 28.1063 384.343 28.083L385.533 28.048V27.523C385.533 27.1077 385.409 26.781 385.162 26.543C384.915 26.305 384.534 26.1883 384.021 26.193C383.634 26.193 383.288 26.2817 382.985 26.459C382.686 26.6363 382.49 26.928 382.397 27.334H381.095C381.123 26.8533 381.261 26.4497 381.508 26.123C381.76 25.7917 382.105 25.542 382.544 25.374C382.983 25.206 383.498 25.122 384.091 25.122C384.749 25.122 385.29 25.213 385.715 25.395C386.14 25.5723 386.455 25.8337 386.66 26.179C386.87 26.5243 386.975 26.9443 386.975 27.439V32.5H385.708L385.589 31.17C385.318 31.7253 384.975 32.1103 384.56 32.325C384.149 32.535 383.685 32.64 383.167 32.64ZM383.636 31.597C383.865 31.597 384.091 31.5573 384.315 31.478C384.539 31.394 384.742 31.282 384.924 31.142C385.106 30.9973 385.251 30.8363 385.358 30.659C385.47 30.4817 385.528 30.2997 385.533 30.113V28.916L384.553 28.937C384.054 28.9417 383.629 28.993 383.279 29.091C382.934 29.189 382.668 29.3407 382.481 29.546C382.299 29.7513 382.208 30.0243 382.208 30.365C382.208 30.7523 382.343 31.0557 382.614 31.275C382.885 31.4897 383.225 31.597 383.636 31.597ZM388.67 32.5V25.262H390.126V26.305C390.332 25.9877 390.612 25.7123 390.966 25.479C391.321 25.241 391.778 25.122 392.338 25.122C392.6 25.122 392.863 25.1663 393.129 25.255C393.4 25.3437 393.647 25.4767 393.871 25.654C394.1 25.8267 394.28 26.0413 394.41 26.298C394.639 25.9527 394.945 25.6703 395.327 25.451C395.71 25.2317 396.139 25.122 396.615 25.122C396.872 25.122 397.138 25.164 397.413 25.248C397.689 25.3273 397.943 25.465 398.176 25.661C398.414 25.8523 398.606 26.1183 398.75 26.459C398.9 26.7997 398.974 27.2313 398.974 27.754V32.5H397.469V27.915C397.469 27.5183 397.402 27.208 397.266 26.984C397.136 26.76 396.963 26.6037 396.748 26.515C396.538 26.4217 396.314 26.375 396.076 26.375C395.862 26.375 395.638 26.417 395.404 26.501C395.171 26.585 394.973 26.725 394.809 26.921C394.646 27.117 394.564 27.383 394.564 27.719V32.5H393.066V27.593C393.066 27.327 392.994 27.103 392.849 26.921C392.709 26.739 392.532 26.6037 392.317 26.515C392.107 26.4217 391.897 26.375 391.687 26.375C391.454 26.375 391.221 26.4217 390.987 26.515C390.754 26.6083 390.558 26.7553 390.399 26.956C390.245 27.152 390.168 27.4063 390.168 27.719V32.5H388.67Z" fill="white"/>
<path d="M350.86 19.5V10.292H348.628V9.324C349.321 9.324 349.86 9.27333 350.244 9.172C350.628 9.07067 350.9 8.916 351.06 8.708C351.225 8.5 351.316 8.24133 351.332 7.932H352.388V19.5H350.86ZM359.223 7.772C360.477 7.772 361.474 8.276 362.215 9.284C362.962 10.2867 363.335 11.772 363.335 13.74C363.335 15.6973 362.965 17.1773 362.223 18.18C361.482 19.1773 360.477 19.676 359.207 19.676C357.943 19.676 356.941 19.18 356.199 18.188C355.458 17.1907 355.087 15.716 355.087 13.764C355.087 12.4467 355.258 11.3427 355.599 10.452C355.941 9.56133 356.421 8.892 357.039 8.444C357.658 7.996 358.386 7.772 359.223 7.772ZM359.223 18.396C360.05 18.396 360.674 18.0333 361.095 17.308C361.522 16.5773 361.735 15.3907 361.735 13.748C361.735 12.0733 361.519 10.868 361.087 10.132C360.661 9.39067 360.037 9.02 359.215 9.02C358.399 9.02 357.77 9.39333 357.327 10.14C356.89 10.8813 356.671 12.084 356.671 13.748C356.671 15.3853 356.89 16.5693 357.327 17.3C357.765 18.0307 358.397 18.396 359.223 18.396Z" fill="white"/>
<path d="M349.167 32.64C348.7 32.64 348.285 32.556 347.921 32.388C347.562 32.22 347.279 31.9773 347.074 31.66C346.869 31.3427 346.766 30.96 346.766 30.512C346.766 29.7093 347.051 29.1097 347.62 28.713C348.189 28.3163 349.097 28.1063 350.343 28.083L351.533 28.048V27.523C351.533 27.1077 351.409 26.781 351.162 26.543C350.915 26.305 350.534 26.1883 350.021 26.193C349.634 26.193 349.288 26.2817 348.985 26.459C348.686 26.6363 348.49 26.928 348.397 27.334H347.095C347.123 26.8533 347.261 26.4497 347.508 26.123C347.76 25.7917 348.105 25.542 348.544 25.374C348.983 25.206 349.498 25.122 350.091 25.122C350.749 25.122 351.29 25.213 351.715 25.395C352.14 25.5723 352.455 25.8337 352.66 26.179C352.87 26.5243 352.975 26.9443 352.975 27.439V32.5H351.708L351.589 31.17C351.318 31.7253 350.975 32.1103 350.56 32.325C350.149 32.535 349.685 32.64 349.167 32.64ZM349.636 31.597C349.865 31.597 350.091 31.5573 350.315 31.478C350.539 31.394 350.742 31.282 350.924 31.142C351.106 30.9973 351.251 30.8363 351.358 30.659C351.47 30.4817 351.528 30.2997 351.533 30.113V28.916L350.553 28.937C350.054 28.9417 349.629 28.993 349.279 29.091C348.934 29.189 348.668 29.3407 348.481 29.546C348.299 29.7513 348.208 30.0243 348.208 30.365C348.208 30.7523 348.343 31.0557 348.614 31.275C348.885 31.4897 349.225 31.597 349.636 31.597ZM354.67 32.5V25.262H356.126V26.305C356.332 25.9877 356.612 25.7123 356.966 25.479C357.321 25.241 357.778 25.122 358.338 25.122C358.6 25.122 358.863 25.1663 359.129 25.255C359.4 25.3437 359.647 25.4767 359.871 25.654C360.1 25.8267 360.28 26.0413 360.41 26.298C360.639 25.9527 360.945 25.6703 361.327 25.451C361.71 25.2317 362.139 25.122 362.615 25.122C362.872 25.122 363.138 25.164 363.413 25.248C363.689 25.3273 363.943 25.465 364.176 25.661C364.414 25.8523 364.606 26.1183 364.75 26.459C364.9 26.7997 364.974 27.2313 364.974 27.754V32.5H363.469V27.915C363.469 27.5183 363.402 27.208 363.266 26.984C363.136 26.76 362.963 26.6037 362.748 26.515C362.538 26.4217 362.314 26.375 362.076 26.375C361.862 26.375 361.638 26.417 361.404 26.501C361.171 26.585 360.973 26.725 360.809 26.921C360.646 27.117 360.564 27.383 360.564 27.719V32.5H359.066V27.593C359.066 27.327 358.994 27.103 358.849 26.921C358.709 26.739 358.532 26.6037 358.317 26.515C358.107 26.4217 357.897 26.375 357.687 26.375C357.454 26.375 357.221 26.4217 356.987 26.515C356.754 26.6083 356.558 26.7553 356.399 26.956C356.245 27.152 356.168 27.4063 356.168 27.719V32.5H354.67Z" fill="white"/>
<path d="M321.656 19.676C321.016 19.676 320.418 19.556 319.864 19.316C319.314 19.0707 318.853 18.724 318.48 18.276C318.112 17.828 317.885 17.292 317.8 16.668H319.24C319.373 17.196 319.65 17.6253 320.072 17.956C320.493 18.2813 321.005 18.444 321.608 18.444C322.29 18.444 322.874 18.2653 323.36 17.908C323.85 17.5507 324.216 16.9987 324.456 16.252C324.696 15.5053 324.786 14.548 324.728 13.38C324.594 13.7853 324.384 14.1427 324.096 14.452C323.808 14.756 323.461 14.996 323.056 15.172C322.65 15.348 322.202 15.436 321.712 15.436C320.949 15.436 320.277 15.2867 319.696 14.988C319.114 14.6893 318.661 14.2627 318.336 13.708C318.016 13.1533 317.856 12.4893 317.856 11.716C317.856 10.9427 318.016 10.26 318.336 9.668C318.656 9.076 319.114 8.612 319.712 8.276C320.309 7.94 321.018 7.772 321.84 7.772C322.736 7.772 323.512 8.004 324.168 8.468C324.824 8.92667 325.33 9.588 325.688 10.452C326.045 11.3107 326.224 12.3427 326.224 13.548C326.224 14.844 326.045 15.948 325.688 16.86C325.336 17.772 324.818 18.4707 324.136 18.956C323.458 19.436 322.632 19.676 321.656 19.676ZM321.872 14.18C322.298 14.18 322.704 14.0813 323.088 13.884C323.472 13.6867 323.784 13.4253 324.024 13.1C324.269 12.7693 324.392 12.4093 324.392 12.02C324.397 11.4227 324.296 10.8973 324.088 10.444C323.88 9.98533 323.584 9.628 323.2 9.372C322.816 9.11067 322.368 8.98 321.856 8.98C321.386 8.98 320.97 9.092 320.608 9.316C320.25 9.54 319.968 9.852 319.76 10.252C319.557 10.652 319.456 11.116 319.456 11.644C319.456 12.4173 319.661 13.0333 320.072 13.492C320.482 13.9507 321.082 14.18 321.872 14.18Z" fill="white"/>
<path d="M315.167 32.64C314.7 32.64 314.285 32.556 313.921 32.388C313.562 32.22 313.279 31.9773 313.074 31.66C312.869 31.3427 312.766 30.96 312.766 30.512C312.766 29.7093 313.051 29.1097 313.62 28.713C314.189 28.3163 315.097 28.1063 316.343 28.083L317.533 28.048V27.523C317.533 27.1077 317.409 26.781 317.162 26.543C316.915 26.305 316.534 26.1883 316.021 26.193C315.634 26.193 315.288 26.2817 314.985 26.459C314.686 26.6363 314.49 26.928 314.397 27.334H313.095C313.123 26.8533 313.261 26.4497 313.508 26.123C313.76 25.7917 314.105 25.542 314.544 25.374C314.983 25.206 315.498 25.122 316.091 25.122C316.749 25.122 317.29 25.213 317.715 25.395C318.14 25.5723 318.455 25.8337 318.66 26.179C318.87 26.5243 318.975 26.9443 318.975 27.439V32.5H317.708L317.589 31.17C317.318 31.7253 316.975 32.1103 316.56 32.325C316.149 32.535 315.685 32.64 315.167 32.64ZM315.636 31.597C315.865 31.597 316.091 31.5573 316.315 31.478C316.539 31.394 316.742 31.282 316.924 31.142C317.106 30.9973 317.251 30.8363 317.358 30.659C317.47 30.4817 317.528 30.2997 317.533 30.113V28.916L316.553 28.937C316.054 28.9417 315.629 28.993 315.279 29.091C314.934 29.189 314.668 29.3407 314.481 29.546C314.299 29.7513 314.208 30.0243 314.208 30.365C314.208 30.7523 314.343 31.0557 314.614 31.275C314.885 31.4897 315.225 31.597 315.636 31.597ZM320.67 32.5V25.262H322.126V26.305C322.332 25.9877 322.612 25.7123 322.966 25.479C323.321 25.241 323.778 25.122 324.338 25.122C324.6 25.122 324.863 25.1663 325.129 25.255C325.4 25.3437 325.647 25.4767 325.871 25.654C326.1 25.8267 326.28 26.0413 326.41 26.298C326.639 25.9527 326.945 25.6703 327.327 25.451C327.71 25.2317 328.139 25.122 328.615 25.122C328.872 25.122 329.138 25.164 329.413 25.248C329.689 25.3273 329.943 25.465 330.176 25.661C330.414 25.8523 330.606 26.1183 330.75 26.459C330.9 26.7997 330.974 27.2313 330.974 27.754V32.5H329.469V27.915C329.469 27.5183 329.402 27.208 329.266 26.984C329.136 26.76 328.963 26.6037 328.748 26.515C328.538 26.4217 328.314 26.375 328.076 26.375C327.862 26.375 327.638 26.417 327.404 26.501C327.171 26.585 326.973 26.725 326.809 26.921C326.646 27.117 326.564 27.383 326.564 27.719V32.5H325.066V27.593C325.066 27.327 324.994 27.103 324.849 26.921C324.709 26.739 324.532 26.6037 324.317 26.515C324.107 26.4217 323.897 26.375 323.687 26.375C323.454 26.375 323.221 26.4217 322.987 26.515C322.754 26.6083 322.558 26.7553 322.399 26.956C322.245 27.152 322.168 27.4063 322.168 27.719V32.5H320.67Z" fill="white"/>
<path d="M287.996 7.772C288.738 7.772 289.402 7.89467 289.988 8.14C290.575 8.38533 291.039 8.74267 291.38 9.212C291.722 9.68133 291.892 10.252 291.892 10.924C291.892 11.5533 291.722 12.0813 291.38 12.508C291.044 12.9347 290.61 13.26 290.076 13.484C290.466 13.5587 290.836 13.74 291.188 14.028C291.546 14.316 291.839 14.6653 292.068 15.076C292.298 15.4867 292.412 15.916 292.412 16.364C292.412 17.0307 292.228 17.612 291.86 18.108C291.498 18.604 290.986 18.9907 290.324 19.268C289.663 19.54 288.887 19.676 287.996 19.676C287.111 19.676 286.338 19.54 285.676 19.268C285.015 18.9907 284.5 18.604 284.132 18.108C283.77 17.612 283.588 17.0307 283.588 16.364C283.588 15.916 283.7 15.4867 283.924 15.076C284.154 14.6653 284.447 14.316 284.804 14.028C285.162 13.74 285.535 13.5587 285.924 13.484C285.396 13.26 284.959 12.9347 284.612 12.508C284.271 12.0813 284.1 11.5533 284.1 10.924C284.1 10.252 284.271 9.68133 284.612 9.212C284.954 8.74267 285.418 8.38533 286.004 8.14C286.596 7.89467 287.26 7.772 287.996 7.772ZM287.996 12.86C288.7 12.86 289.271 12.6867 289.708 12.34C290.151 11.9933 290.372 11.5107 290.372 10.892C290.372 10.268 290.151 9.77733 289.708 9.42C289.266 9.05733 288.695 8.876 287.996 8.876C287.298 8.876 286.727 9.05733 286.284 9.42C285.842 9.78267 285.62 10.2733 285.62 10.892C285.62 11.5107 285.842 11.9933 286.284 12.34C286.727 12.6867 287.298 12.86 287.996 12.86ZM287.996 18.476C288.855 18.476 289.54 18.284 290.052 17.9C290.564 17.5107 290.82 16.996 290.82 16.356C290.82 15.9347 290.703 15.5587 290.468 15.228C290.239 14.8973 289.914 14.6387 289.492 14.452C289.071 14.26 288.572 14.164 287.996 14.164C287.426 14.164 286.93 14.26 286.508 14.452C286.092 14.6387 285.767 14.8973 285.532 15.228C285.303 15.5587 285.188 15.9347 285.188 16.356C285.188 16.996 285.442 17.5107 285.948 17.9C286.46 18.284 287.143 18.476 287.996 18.476Z" fill="white"/>
<path d="M281.167 32.64C280.7 32.64 280.285 32.556 279.921 32.388C279.562 32.22 279.279 31.9773 279.074 31.66C278.869 31.3427 278.766 30.96 278.766 30.512C278.766 29.7093 279.051 29.1097 279.62 28.713C280.189 28.3163 281.097 28.1063 282.343 28.083L283.533 28.048V27.523C283.533 27.1077 283.409 26.781 283.162 26.543C282.915 26.305 282.534 26.1883 282.021 26.193C281.634 26.193 281.288 26.2817 280.985 26.459C280.686 26.6363 280.49 26.928 280.397 27.334H279.095C279.123 26.8533 279.261 26.4497 279.508 26.123C279.76 25.7917 280.105 25.542 280.544 25.374C280.983 25.206 281.498 25.122 282.091 25.122C282.749 25.122 283.29 25.213 283.715 25.395C284.14 25.5723 284.455 25.8337 284.66 26.179C284.87 26.5243 284.975 26.9443 284.975 27.439V32.5H283.708L283.589 31.17C283.318 31.7253 282.975 32.1103 282.56 32.325C282.149 32.535 281.685 32.64 281.167 32.64ZM281.636 31.597C281.865 31.597 282.091 31.5573 282.315 31.478C282.539 31.394 282.742 31.282 282.924 31.142C283.106 30.9973 283.251 30.8363 283.358 30.659C283.47 30.4817 283.528 30.2997 283.533 30.113V28.916L282.553 28.937C282.054 28.9417 281.629 28.993 281.279 29.091C280.934 29.189 280.668 29.3407 280.481 29.546C280.299 29.7513 280.208 30.0243 280.208 30.365C280.208 30.7523 280.343 31.0557 280.614 31.275C280.885 31.4897 281.225 31.597 281.636 31.597ZM286.67 32.5V25.262H288.126V26.305C288.332 25.9877 288.612 25.7123 288.966 25.479C289.321 25.241 289.778 25.122 290.338 25.122C290.6 25.122 290.863 25.1663 291.129 25.255C291.4 25.3437 291.647 25.4767 291.871 25.654C292.1 25.8267 292.28 26.0413 292.41 26.298C292.639 25.9527 292.945 25.6703 293.327 25.451C293.71 25.2317 294.139 25.122 294.615 25.122C294.872 25.122 295.138 25.164 295.413 25.248C295.689 25.3273 295.943 25.465 296.176 25.661C296.414 25.8523 296.606 26.1183 296.75 26.459C296.9 26.7997 296.974 27.2313 296.974 27.754V32.5H295.469V27.915C295.469 27.5183 295.402 27.208 295.266 26.984C295.136 26.76 294.963 26.6037 294.748 26.515C294.538 26.4217 294.314 26.375 294.076 26.375C293.862 26.375 293.638 26.417 293.404 26.501C293.171 26.585 292.973 26.725 292.809 26.921C292.646 27.117 292.564 27.383 292.564 27.719V32.5H291.066V27.593C291.066 27.327 290.994 27.103 290.849 26.921C290.709 26.739 290.532 26.6037 290.317 26.515C290.107 26.4217 289.897 26.375 289.687 26.375C289.454 26.375 289.221 26.4217 288.987 26.515C288.754 26.6083 288.558 26.7553 288.399 26.956C288.245 27.152 288.168 27.4063 288.168 27.719V32.5H286.67Z" fill="white"/>
<path d="M249.939 7.932H258.059V9.212C257.649 9.772 257.241 10.4093 256.835 11.124C256.435 11.8333 256.054 12.5773 255.691 13.356C255.329 14.1293 255.003 14.8947 254.715 15.652C254.427 16.404 254.187 17.1133 253.995 17.78C253.809 18.4413 253.689 19.0147 253.635 19.5H252.027C252.113 18.972 252.265 18.3187 252.483 17.54C252.707 16.7613 253.001 15.9107 253.363 14.988C253.726 14.06 254.163 13.1027 254.675 12.116C255.187 11.1293 255.774 10.1613 256.435 9.212H249.939V7.932Z" fill="white"/>
<path d="M247.167 32.64C246.7 32.64 246.285 32.556 245.921 32.388C245.562 32.22 245.279 31.9773 245.074 31.66C244.869 31.3427 244.766 30.96 244.766 30.512C244.766 29.7093 245.051 29.1097 245.62 28.713C246.189 28.3163 247.097 28.1063 248.343 28.083L249.533 28.048V27.523C249.533 27.1077 249.409 26.781 249.162 26.543C248.915 26.305 248.534 26.1883 248.021 26.193C247.634 26.193 247.288 26.2817 246.985 26.459C246.686 26.6363 246.49 26.928 246.397 27.334H245.095C245.123 26.8533 245.261 26.4497 245.508 26.123C245.76 25.7917 246.105 25.542 246.544 25.374C246.983 25.206 247.498 25.122 248.091 25.122C248.749 25.122 249.29 25.213 249.715 25.395C250.14 25.5723 250.455 25.8337 250.66 26.179C250.87 26.5243 250.975 26.9443 250.975 27.439V32.5H249.708L249.589 31.17C249.318 31.7253 248.975 32.1103 248.56 32.325C248.149 32.535 247.685 32.64 247.167 32.64ZM247.636 31.597C247.865 31.597 248.091 31.5573 248.315 31.478C248.539 31.394 248.742 31.282 248.924 31.142C249.106 30.9973 249.251 30.8363 249.358 30.659C249.47 30.4817 249.528 30.2997 249.533 30.113V28.916L248.553 28.937C248.054 28.9417 247.629 28.993 247.279 29.091C246.934 29.189 246.668 29.3407 246.481 29.546C246.299 29.7513 246.208 30.0243 246.208 30.365C246.208 30.7523 246.343 31.0557 246.614 31.275C246.885 31.4897 247.225 31.597 247.636 31.597ZM252.67 32.5V25.262H254.126V26.305C254.332 25.9877 254.612 25.7123 254.966 25.479C255.321 25.241 255.778 25.122 256.338 25.122C256.6 25.122 256.863 25.1663 257.129 25.255C257.4 25.3437 257.647 25.4767 257.871 25.654C258.1 25.8267 258.28 26.0413 258.41 26.298C258.639 25.9527 258.945 25.6703 259.327 25.451C259.71 25.2317 260.139 25.122 260.615 25.122C260.872 25.122 261.138 25.164 261.413 25.248C261.689 25.3273 261.943 25.465 262.176 25.661C262.414 25.8523 262.606 26.1183 262.75 26.459C262.9 26.7997 262.974 27.2313 262.974 27.754V32.5H261.469V27.915C261.469 27.5183 261.402 27.208 261.266 26.984C261.136 26.76 260.963 26.6037 260.748 26.515C260.538 26.4217 260.314 26.375 260.076 26.375C259.862 26.375 259.638 26.417 259.404 26.501C259.171 26.585 258.973 26.725 258.809 26.921C258.646 27.117 258.564 27.383 258.564 27.719V32.5H257.066V27.593C257.066 27.327 256.994 27.103 256.849 26.921C256.709 26.739 256.532 26.6037 256.317 26.515C256.107 26.4217 255.897 26.375 255.687 26.375C255.454 26.375 255.221 26.4217 254.987 26.515C254.754 26.6083 254.558 26.7553 254.399 26.956C254.245 27.152 254.168 27.4063 254.168 27.719V32.5H252.67Z" fill="white"/>
<path d="M220.319 7.772C220.959 7.772 221.549 7.892 222.087 8.132C222.631 8.372 223.082 8.716 223.439 9.164C223.797 9.612 224.018 10.1533 224.103 10.788H222.711C222.557 10.2387 222.277 9.804 221.871 9.484C221.466 9.164 220.957 9.004 220.343 9.004C219.661 9.004 219.09 9.19867 218.631 9.588C218.178 9.972 217.847 10.5373 217.639 11.284C217.431 12.0253 217.359 12.9373 217.423 14.02C217.567 13.6307 217.786 13.2893 218.079 12.996C218.378 12.6973 218.725 12.468 219.119 12.308C219.514 12.1427 219.941 12.06 220.399 12.06C221.162 12.06 221.829 12.2093 222.399 12.508C222.97 12.8013 223.415 13.2227 223.735 13.772C224.055 14.316 224.215 14.9667 224.215 15.724C224.215 16.4973 224.05 17.1827 223.719 17.78C223.394 18.372 222.93 18.836 222.327 19.172C221.725 19.508 221.013 19.676 220.191 19.676C219.295 19.676 218.517 19.444 217.855 18.98C217.199 18.516 216.69 17.8547 216.327 16.996C215.97 16.132 215.791 15.0973 215.791 13.892C215.791 12.6547 215.965 11.5773 216.311 10.66C216.663 9.74267 217.175 9.03333 217.847 8.532C218.519 8.02533 219.343 7.772 220.319 7.772ZM220.159 13.26C219.738 13.26 219.333 13.3613 218.943 13.564C218.559 13.7613 218.245 14.0227 217.999 14.348C217.759 14.6733 217.639 15.0333 217.639 15.428C217.634 16.0147 217.735 16.5373 217.943 16.996C218.157 17.4493 218.455 17.8067 218.839 18.068C219.223 18.324 219.669 18.452 220.175 18.452C220.65 18.452 221.071 18.34 221.439 18.116C221.807 17.892 222.095 17.58 222.303 17.18C222.517 16.78 222.623 16.3187 222.623 15.796C222.623 15.268 222.527 14.8147 222.335 14.436C222.149 14.0573 221.871 13.7667 221.503 13.564C221.135 13.3613 220.687 13.26 220.159 13.26Z" fill="white"/>
<path d="M213.167 32.64C212.7 32.64 212.285 32.556 211.921 32.388C211.562 32.22 211.279 31.9773 211.074 31.66C210.869 31.3427 210.766 30.96 210.766 30.512C210.766 29.7093 211.051 29.1097 211.62 28.713C212.189 28.3163 213.097 28.1063 214.343 28.083L215.533 28.048V27.523C215.533 27.1077 215.409 26.781 215.162 26.543C214.915 26.305 214.534 26.1883 214.021 26.193C213.634 26.193 213.288 26.2817 212.985 26.459C212.686 26.6363 212.49 26.928 212.397 27.334H211.095C211.123 26.8533 211.261 26.4497 211.508 26.123C211.76 25.7917 212.105 25.542 212.544 25.374C212.983 25.206 213.498 25.122 214.091 25.122C214.749 25.122 215.29 25.213 215.715 25.395C216.14 25.5723 216.455 25.8337 216.66 26.179C216.87 26.5243 216.975 26.9443 216.975 27.439V32.5H215.708L215.589 31.17C215.318 31.7253 214.975 32.1103 214.56 32.325C214.149 32.535 213.685 32.64 213.167 32.64ZM213.636 31.597C213.865 31.597 214.091 31.5573 214.315 31.478C214.539 31.394 214.742 31.282 214.924 31.142C215.106 30.9973 215.251 30.8363 215.358 30.659C215.47 30.4817 215.528 30.2997 215.533 30.113V28.916L214.553 28.937C214.054 28.9417 213.629 28.993 213.279 29.091C212.934 29.189 212.668 29.3407 212.481 29.546C212.299 29.7513 212.208 30.0243 212.208 30.365C212.208 30.7523 212.343 31.0557 212.614 31.275C212.885 31.4897 213.225 31.597 213.636 31.597ZM218.67 32.5V25.262H220.126V26.305C220.332 25.9877 220.612 25.7123 220.966 25.479C221.321 25.241 221.778 25.122 222.338 25.122C222.6 25.122 222.863 25.1663 223.129 25.255C223.4 25.3437 223.647 25.4767 223.871 25.654C224.1 25.8267 224.28 26.0413 224.41 26.298C224.639 25.9527 224.945 25.6703 225.327 25.451C225.71 25.2317 226.139 25.122 226.615 25.122C226.872 25.122 227.138 25.164 227.413 25.248C227.689 25.3273 227.943 25.465 228.176 25.661C228.414 25.8523 228.606 26.1183 228.75 26.459C228.9 26.7997 228.974 27.2313 228.974 27.754V32.5H227.469V27.915C227.469 27.5183 227.402 27.208 227.266 26.984C227.136 26.76 226.963 26.6037 226.748 26.515C226.538 26.4217 226.314 26.375 226.076 26.375C225.862 26.375 225.638 26.417 225.404 26.501C225.171 26.585 224.973 26.725 224.809 26.921C224.646 27.117 224.564 27.383 224.564 27.719V32.5H223.066V27.593C223.066 27.327 222.994 27.103 222.849 26.921C222.709 26.739 222.532 26.6037 222.317 26.515C222.107 26.4217 221.897 26.375 221.687 26.375C221.454 26.375 221.221 26.4217 220.987 26.515C220.754 26.6083 220.558 26.7553 220.399 26.956C220.245 27.152 220.168 27.4063 220.168 27.719V32.5H218.67Z" fill="white"/>
<path d="M182.747 7.932H189.651L189.611 9.212H184.011L183.715 12.948C184.099 12.5907 184.518 12.3373 184.971 12.188C185.43 12.0333 185.926 11.956 186.459 11.956C187.158 11.956 187.8 12.1 188.387 12.388C188.979 12.6707 189.454 13.092 189.811 13.652C190.168 14.2067 190.347 14.8947 190.347 15.716C190.347 16.516 190.174 17.212 189.827 17.804C189.48 18.396 188.992 18.8573 188.363 19.188C187.734 19.5133 186.995 19.676 186.147 19.676C185.432 19.676 184.771 19.5507 184.163 19.3C183.555 19.0493 183.032 18.7 182.595 18.252C182.163 17.804 181.846 17.2893 181.643 16.708L182.923 16.172C183.115 16.6093 183.355 16.9987 183.643 17.34C183.936 17.6813 184.283 17.948 184.683 18.14C185.083 18.332 185.536 18.428 186.043 18.428C186.864 18.428 187.523 18.1907 188.019 17.716C188.52 17.236 188.771 16.5853 188.771 15.764C188.771 15.252 188.654 14.8067 188.419 14.428C188.184 14.044 187.867 13.7453 187.467 13.532C187.072 13.3187 186.635 13.212 186.155 13.212C185.84 13.212 185.547 13.2413 185.275 13.3C185.003 13.3533 184.734 13.46 184.467 13.62C184.2 13.78 183.92 14.0227 183.627 14.348C183.595 14.364 183.571 14.372 183.555 14.372C183.539 14.3667 183.512 14.356 183.475 14.34L182.227 13.948L182.747 7.932Z" fill="black"/>
<path d="M179.167 32.64C178.7 32.64 178.285 32.556 177.921 32.388C177.562 32.22 177.279 31.9773 177.074 31.66C176.869 31.3427 176.766 30.96 176.766 30.512C176.766 29.7093 177.051 29.1097 177.62 28.713C178.189 28.3163 179.097 28.1063 180.343 28.083L181.533 28.048V27.523C181.533 27.1077 181.409 26.781 181.162 26.543C180.915 26.305 180.534 26.1883 180.021 26.193C179.634 26.193 179.288 26.2817 178.985 26.459C178.686 26.6363 178.49 26.928 178.397 27.334H177.095C177.123 26.8533 177.261 26.4497 177.508 26.123C177.76 25.7917 178.105 25.542 178.544 25.374C178.983 25.206 179.498 25.122 180.091 25.122C180.749 25.122 181.29 25.213 181.715 25.395C182.14 25.5723 182.455 25.8337 182.66 26.179C182.87 26.5243 182.975 26.9443 182.975 27.439V32.5H181.708L181.589 31.17C181.318 31.7253 180.975 32.1103 180.56 32.325C180.149 32.535 179.685 32.64 179.167 32.64ZM179.636 31.597C179.865 31.597 180.091 31.5573 180.315 31.478C180.539 31.394 180.742 31.282 180.924 31.142C181.106 30.9973 181.251 30.8363 181.358 30.659C181.47 30.4817 181.528 30.2997 181.533 30.113V28.916L180.553 28.937C180.054 28.9417 179.629 28.993 179.279 29.091C178.934 29.189 178.668 29.3407 178.481 29.546C178.299 29.7513 178.208 30.0243 178.208 30.365C178.208 30.7523 178.343 31.0557 178.614 31.275C178.885 31.4897 179.225 31.597 179.636 31.597ZM184.67 32.5V25.262H186.126V26.305C186.332 25.9877 186.612 25.7123 186.966 25.479C187.321 25.241 187.778 25.122 188.338 25.122C188.6 25.122 188.863 25.1663 189.129 25.255C189.4 25.3437 189.647 25.4767 189.871 25.654C190.1 25.8267 190.28 26.0413 190.41 26.298C190.639 25.9527 190.945 25.6703 191.327 25.451C191.71 25.2317 192.139 25.122 192.615 25.122C192.872 25.122 193.138 25.164 193.413 25.248C193.689 25.3273 193.943 25.465 194.176 25.661C194.414 25.8523 194.606 26.1183 194.75 26.459C194.9 26.7997 194.974 27.2313 194.974 27.754V32.5H193.469V27.915C193.469 27.5183 193.402 27.208 193.266 26.984C193.136 26.76 192.963 26.6037 192.748 26.515C192.538 26.4217 192.314 26.375 192.076 26.375C191.862 26.375 191.638 26.417 191.404 26.501C191.171 26.585 190.973 26.725 190.809 26.921C190.646 27.117 190.564 27.383 190.564 27.719V32.5H189.066V27.593C189.066 27.327 188.994 27.103 188.849 26.921C188.709 26.739 188.532 26.6037 188.317 26.515C188.107 26.4217 187.897 26.375 187.687 26.375C187.454 26.375 187.221 26.4217 186.987 26.515C186.754 26.6083 186.558 26.7553 186.399 26.956C186.245 27.152 186.168 27.4063 186.168 27.719V32.5H184.67Z" fill="black"/>
<path d="M153.105 7.932H154.609V15.244H156.529V16.548H154.609V19.5H153.161V16.548H147.713V15.196L153.105 7.932ZM149.129 15.244H153.129V9.876L149.129 15.244Z" fill="black"/>
<path d="M145.167 32.64C144.7 32.64 144.285 32.556 143.921 32.388C143.562 32.22 143.279 31.9773 143.074 31.66C142.869 31.3427 142.766 30.96 142.766 30.512C142.766 29.7093 143.051 29.1097 143.62 28.713C144.189 28.3163 145.097 28.1063 146.343 28.083L147.533 28.048V27.523C147.533 27.1077 147.409 26.781 147.162 26.543C146.915 26.305 146.534 26.1883 146.021 26.193C145.634 26.193 145.288 26.2817 144.985 26.459C144.686 26.6363 144.49 26.928 144.397 27.334H143.095C143.123 26.8533 143.261 26.4497 143.508 26.123C143.76 25.7917 144.105 25.542 144.544 25.374C144.983 25.206 145.498 25.122 146.091 25.122C146.749 25.122 147.29 25.213 147.715 25.395C148.14 25.5723 148.455 25.8337 148.66 26.179C148.87 26.5243 148.975 26.9443 148.975 27.439V32.5H147.708L147.589 31.17C147.318 31.7253 146.975 32.1103 146.56 32.325C146.149 32.535 145.685 32.64 145.167 32.64ZM145.636 31.597C145.865 31.597 146.091 31.5573 146.315 31.478C146.539 31.394 146.742 31.282 146.924 31.142C147.106 30.9973 147.251 30.8363 147.358 30.659C147.47 30.4817 147.528 30.2997 147.533 30.113V28.916L146.553 28.937C146.054 28.9417 145.629 28.993 145.279 29.091C144.934 29.189 144.668 29.3407 144.481 29.546C144.299 29.7513 144.208 30.0243 144.208 30.365C144.208 30.7523 144.343 31.0557 144.614 31.275C144.885 31.4897 145.225 31.597 145.636 31.597ZM150.67 32.5V25.262H152.126V26.305C152.332 25.9877 152.612 25.7123 152.966 25.479C153.321 25.241 153.778 25.122 154.338 25.122C154.6 25.122 154.863 25.1663 155.129 25.255C155.4 25.3437 155.647 25.4767 155.871 25.654C156.1 25.8267 156.28 26.0413 156.41 26.298C156.639 25.9527 156.945 25.6703 157.327 25.451C157.71 25.2317 158.139 25.122 158.615 25.122C158.872 25.122 159.138 25.164 159.413 25.248C159.689 25.3273 159.943 25.465 160.176 25.661C160.414 25.8523 160.606 26.1183 160.75 26.459C160.9 26.7997 160.974 27.2313 160.974 27.754V32.5H159.469V27.915C159.469 27.5183 159.402 27.208 159.266 26.984C159.136 26.76 158.963 26.6037 158.748 26.515C158.538 26.4217 158.314 26.375 158.076 26.375C157.862 26.375 157.638 26.417 157.404 26.501C157.171 26.585 156.973 26.725 156.809 26.921C156.646 27.117 156.564 27.383 156.564 27.719V32.5H155.066V27.593C155.066 27.327 154.994 27.103 154.849 26.921C154.709 26.739 154.532 26.6037 154.317 26.515C154.107 26.4217 153.897 26.375 153.687 26.375C153.454 26.375 153.221 26.4217 152.987 26.515C152.754 26.6083 152.558 26.7553 152.399 26.956C152.245 27.152 152.168 27.4063 152.168 27.719V32.5H150.67Z" fill="black"/>
<path d="M113.881 11.3C113.881 10.5533 114.062 9.91867 114.425 9.396C114.788 8.868 115.27 8.46533 115.873 8.188C116.481 7.91067 117.15 7.772 117.881 7.772C118.681 7.772 119.388 7.88933 120.001 8.124C120.614 8.35333 121.094 8.68933 121.441 9.132C121.788 9.57467 121.961 10.116 121.961 10.756C121.961 11.3267 121.78 11.844 121.417 12.308C121.054 12.7667 120.5 13.1267 119.753 13.388C120.26 13.5267 120.702 13.7293 121.081 13.996C121.46 14.2627 121.753 14.5907 121.961 14.98C122.169 15.364 122.273 15.8067 122.273 16.308C122.273 16.836 122.161 17.3107 121.937 17.732C121.718 18.148 121.409 18.5027 121.009 18.796C120.609 19.084 120.137 19.3053 119.593 19.46C119.049 19.6093 118.457 19.6813 117.817 19.676C117.022 19.6707 116.321 19.524 115.713 19.236C115.11 18.948 114.636 18.5453 114.289 18.028C113.942 17.5053 113.756 16.8867 113.729 16.172H115.209C115.321 16.892 115.614 17.444 116.089 17.828C116.564 18.212 117.158 18.404 117.873 18.404C118.438 18.404 118.932 18.316 119.353 18.14C119.774 17.9587 120.1 17.7107 120.329 17.396C120.558 17.0813 120.673 16.7133 120.673 16.292C120.673 15.828 120.545 15.436 120.289 15.116C120.033 14.796 119.684 14.5533 119.241 14.388C118.798 14.2173 118.305 14.1293 117.761 14.124L116.721 14.1V12.844L117.713 12.82C118.22 12.8093 118.673 12.7133 119.073 12.532C119.473 12.3453 119.788 12.1027 120.017 11.804C120.252 11.5 120.369 11.1667 120.369 10.804C120.369 10.484 120.27 10.188 120.073 9.916C119.876 9.63867 119.59 9.41733 119.217 9.252C118.849 9.08667 118.401 9.004 117.873 9.004C117.457 9.004 117.06 9.08667 116.681 9.252C116.302 9.412 115.99 9.66 115.745 9.996C115.5 10.332 115.369 10.7667 115.353 11.3H113.881Z" fill="black"/>
<path d="M111.167 32.64C110.7 32.64 110.285 32.556 109.921 32.388C109.562 32.22 109.279 31.9773 109.074 31.66C108.869 31.3427 108.766 30.96 108.766 30.512C108.766 29.7093 109.051 29.1097 109.62 28.713C110.189 28.3163 111.097 28.1063 112.343 28.083L113.533 28.048V27.523C113.533 27.1077 113.409 26.781 113.162 26.543C112.915 26.305 112.534 26.1883 112.021 26.193C111.634 26.193 111.288 26.2817 110.985 26.459C110.686 26.6363 110.49 26.928 110.397 27.334H109.095C109.123 26.8533 109.261 26.4497 109.508 26.123C109.76 25.7917 110.105 25.542 110.544 25.374C110.983 25.206 111.498 25.122 112.091 25.122C112.749 25.122 113.29 25.213 113.715 25.395C114.14 25.5723 114.455 25.8337 114.66 26.179C114.87 26.5243 114.975 26.9443 114.975 27.439V32.5H113.708L113.589 31.17C113.318 31.7253 112.975 32.1103 112.56 32.325C112.149 32.535 111.685 32.64 111.167 32.64ZM111.636 31.597C111.865 31.597 112.091 31.5573 112.315 31.478C112.539 31.394 112.742 31.282 112.924 31.142C113.106 30.9973 113.251 30.8363 113.358 30.659C113.47 30.4817 113.528 30.2997 113.533 30.113V28.916L112.553 28.937C112.054 28.9417 111.629 28.993 111.279 29.091C110.934 29.189 110.668 29.3407 110.481 29.546C110.299 29.7513 110.208 30.0243 110.208 30.365C110.208 30.7523 110.343 31.0557 110.614 31.275C110.885 31.4897 111.225 31.597 111.636 31.597ZM116.67 32.5V25.262H118.126V26.305C118.332 25.9877 118.612 25.7123 118.966 25.479C119.321 25.241 119.778 25.122 120.338 25.122C120.6 25.122 120.863 25.1663 121.129 25.255C121.4 25.3437 121.647 25.4767 121.871 25.654C122.1 25.8267 122.28 26.0413 122.41 26.298C122.639 25.9527 122.945 25.6703 123.327 25.451C123.71 25.2317 124.139 25.122 124.615 25.122C124.872 25.122 125.138 25.164 125.413 25.248C125.689 25.3273 125.943 25.465 126.176 25.661C126.414 25.8523 126.606 26.1183 126.75 26.459C126.9 26.7997 126.974 27.2313 126.974 27.754V32.5H125.469V27.915C125.469 27.5183 125.402 27.208 125.266 26.984C125.136 26.76 124.963 26.6037 124.748 26.515C124.538 26.4217 124.314 26.375 124.076 26.375C123.862 26.375 123.638 26.417 123.404 26.501C123.171 26.585 122.973 26.725 122.809 26.921C122.646 27.117 122.564 27.383 122.564 27.719V32.5H121.066V27.593C121.066 27.327 120.994 27.103 120.849 26.921C120.709 26.739 120.532 26.6037 120.317 26.515C120.107 26.4217 119.897 26.375 119.687 26.375C119.454 26.375 119.221 26.4217 118.987 26.515C118.754 26.6083 118.558 26.7553 118.399 26.956C118.245 27.152 118.168 27.4063 118.168 27.719V32.5H116.67Z" fill="black"/>
<path d="M80.2264 19.5V18.596V18.124C80.2264 17.532 80.3357 17.02 80.5544 16.588C80.7784 16.156 81.0717 15.78 81.4344 15.46C81.8024 15.1347 82.2024 14.844 82.6344 14.588C83.0717 14.332 83.5064 14.0867 83.9384 13.852C84.3757 13.612 84.7757 13.364 85.1384 13.108C85.501 12.8467 85.7917 12.5533 86.0104 12.228C86.2344 11.8973 86.3464 11.508 86.3464 11.06C86.3464 10.4733 86.1384 9.996 85.7224 9.628C85.3117 9.26 84.7544 9.076 84.0504 9.076C83.293 9.076 82.685 9.28933 82.2264 9.716C81.7677 10.1427 81.509 10.7107 81.4504 11.42H79.9784C79.9944 10.7533 80.1597 10.1453 80.4744 9.596C80.789 9.04133 81.2504 8.59867 81.8584 8.268C82.4664 7.93733 83.2157 7.772 84.1064 7.772C84.8797 7.772 85.5517 7.91067 86.1224 8.188C86.693 8.46 87.133 8.844 87.4424 9.34C87.757 9.83067 87.9144 10.404 87.9144 11.06C87.9144 11.6573 87.805 12.1693 87.5864 12.596C87.3677 13.0227 87.077 13.3933 86.7144 13.708C86.357 14.0173 85.965 14.2947 85.5384 14.54C85.1117 14.7853 84.6824 15.0227 84.2504 15.252C83.8184 15.476 83.4237 15.7133 83.0664 15.964C82.709 16.2093 82.421 16.492 82.2024 16.812C81.9837 17.132 81.8744 17.5133 81.8744 17.956V18.188H87.9784V19.5H80.2264Z" fill="black"/>
<path d="M77.167 32.64C76.7003 32.64 76.285 32.556 75.921 32.388C75.5617 32.22 75.2793 31.9773 75.074 31.66C74.8687 31.3427 74.766 30.96 74.766 30.512C74.766 29.7093 75.0507 29.1097 75.62 28.713C76.1893 28.3163 77.097 28.1063 78.343 28.083L79.533 28.048V27.523C79.533 27.1077 79.4093 26.781 79.162 26.543C78.9147 26.305 78.5343 26.1883 78.021 26.193C77.6337 26.193 77.2883 26.2817 76.985 26.459C76.6863 26.6363 76.4903 26.928 76.397 27.334H75.095C75.123 26.8533 75.2607 26.4497 75.508 26.123C75.76 25.7917 76.1053 25.542 76.544 25.374C76.9827 25.206 77.4983 25.122 78.091 25.122C78.749 25.122 79.2903 25.213 79.715 25.395C80.1397 25.5723 80.4547 25.8337 80.66 26.179C80.87 26.5243 80.975 26.9443 80.975 27.439V32.5H79.708L79.589 31.17C79.3183 31.7253 78.9753 32.1103 78.56 32.325C78.1493 32.535 77.685 32.64 77.167 32.64ZM77.636 31.597C77.8647 31.597 78.091 31.5573 78.315 31.478C78.539 31.394 78.742 31.282 78.924 31.142C79.106 30.9973 79.2507 30.8363 79.358 30.659C79.47 30.4817 79.5283 30.2997 79.533 30.113V28.916L78.553 28.937C78.0537 28.9417 77.629 28.993 77.279 29.091C76.9337 29.189 76.6677 29.3407 76.481 29.546C76.299 29.7513 76.208 30.0243 76.208 30.365C76.208 30.7523 76.3433 31.0557 76.614 31.275C76.8847 31.4897 77.2253 31.597 77.636 31.597ZM82.6704 32.5V25.262H84.1264V26.305C84.3317 25.9877 84.6117 25.7123 84.9664 25.479C85.321 25.241 85.7784 25.122 86.3384 25.122C86.5997 25.122 86.8634 25.1663 87.1294 25.255C87.4 25.3437 87.6474 25.4767 87.8714 25.654C88.1 25.8267 88.2797 26.0413 88.4104 26.298C88.639 25.9527 88.9447 25.6703 89.3274 25.451C89.71 25.2317 90.1394 25.122 90.6154 25.122C90.872 25.122 91.138 25.164 91.4134 25.248C91.6887 25.3273 91.943 25.465 92.1764 25.661C92.4144 25.8523 92.6057 26.1183 92.7504 26.459C92.8997 26.7997 92.9744 27.2313 92.9744 27.754V32.5H91.4694V27.915C91.4694 27.5183 91.4017 27.208 91.2664 26.984C91.1357 26.76 90.963 26.6037 90.7484 26.515C90.5384 26.4217 90.3144 26.375 90.0764 26.375C89.8617 26.375 89.6377 26.417 89.4044 26.501C89.171 26.585 88.9727 26.725 88.8094 26.921C88.646 27.117 88.5644 27.383 88.5644 27.719V32.5H87.0664V27.593C87.0664 27.327 86.994 27.103 86.8494 26.921C86.7094 26.739 86.532 26.6037 86.3174 26.515C86.1074 26.4217 85.8974 26.375 85.6874 26.375C85.454 26.375 85.2207 26.4217 84.9874 26.515C84.754 26.6083 84.558 26.7553 84.3994 26.956C84.2454 27.152 84.1684 27.4063 84.1684 27.719V32.5H82.6704Z" fill="black"/>
<path d="M49.7182 19.5V10.292H47.4862V9.324C48.1795 9.324 48.7182 9.27333 49.1022 9.172C49.4862 9.07067 49.7582 8.916 49.9182 8.708C50.0835 8.5 50.1742 8.24133 50.1902 7.932H51.2462V19.5H49.7182Z" fill="black"/>
<path d="M43.167 32.64C42.7003 32.64 42.285 32.556 41.921 32.388C41.5617 32.22 41.2793 31.9773 41.074 31.66C40.8687 31.3427 40.766 30.96 40.766 30.512C40.766 29.7093 41.0507 29.1097 41.62 28.713C42.1893 28.3163 43.097 28.1063 44.343 28.083L45.533 28.048V27.523C45.533 27.1077 45.4093 26.781 45.162 26.543C44.9147 26.305 44.5343 26.1883 44.021 26.193C43.6337 26.193 43.2883 26.2817 42.985 26.459C42.6863 26.6363 42.4903 26.928 42.397 27.334H41.095C41.123 26.8533 41.2607 26.4497 41.508 26.123C41.76 25.7917 42.1053 25.542 42.544 25.374C42.9827 25.206 43.4983 25.122 44.091 25.122C44.749 25.122 45.2903 25.213 45.715 25.395C46.1397 25.5723 46.4547 25.8337 46.66 26.179C46.87 26.5243 46.975 26.9443 46.975 27.439V32.5H45.708L45.589 31.17C45.3183 31.7253 44.9753 32.1103 44.56 32.325C44.1493 32.535 43.685 32.64 43.167 32.64ZM43.636 31.597C43.8647 31.597 44.091 31.5573 44.315 31.478C44.539 31.394 44.742 31.282 44.924 31.142C45.106 30.9973 45.2507 30.8363 45.358 30.659C45.47 30.4817 45.5283 30.2997 45.533 30.113V28.916L44.553 28.937C44.0537 28.9417 43.629 28.993 43.279 29.091C42.9337 29.189 42.6677 29.3407 42.481 29.546C42.299 29.7513 42.208 30.0243 42.208 30.365C42.208 30.7523 42.3433 31.0557 42.614 31.275C42.8847 31.4897 43.2253 31.597 43.636 31.597ZM48.6704 32.5V25.262H50.1264V26.305C50.3317 25.9877 50.6117 25.7123 50.9664 25.479C51.321 25.241 51.7784 25.122 52.3384 25.122C52.5997 25.122 52.8634 25.1663 53.1294 25.255C53.4 25.3437 53.6474 25.4767 53.8714 25.654C54.1 25.8267 54.2797 26.0413 54.4104 26.298C54.639 25.9527 54.9447 25.6703 55.3274 25.451C55.71 25.2317 56.1394 25.122 56.6154 25.122C56.872 25.122 57.138 25.164 57.4134 25.248C57.6887 25.3273 57.943 25.465 58.1764 25.661C58.4144 25.8523 58.6057 26.1183 58.7504 26.459C58.8997 26.7997 58.9744 27.2313 58.9744 27.754V32.5H57.4694V27.915C57.4694 27.5183 57.4017 27.208 57.2664 26.984C57.1357 26.76 56.963 26.6037 56.7484 26.515C56.5384 26.4217 56.3144 26.375 56.0764 26.375C55.8617 26.375 55.6377 26.417 55.4044 26.501C55.171 26.585 54.9727 26.725 54.8094 26.921C54.646 27.117 54.5644 27.383 54.5644 27.719V32.5H53.0664V27.593C53.0664 27.327 52.994 27.103 52.8494 26.921C52.7094 26.739 52.532 26.6037 52.3174 26.515C52.1074 26.4217 51.8974 26.375 51.6874 26.375C51.454 26.375 51.2207 26.4217 50.9874 26.515C50.754 26.6083 50.558 26.7553 50.3994 26.956C50.2454 27.152 50.1684 27.4063 50.1684 27.719V32.5H48.6704Z" fill="black"/>
<path d="M4.63222 16.5L7.49222 8.547H8.93872L11.7932 16.5H10.4512L9.74172 14.5035H6.70572L5.97972 16.5H4.63222ZM7.01372 13.3155H9.41172L8.21822 9.8505L7.01372 13.3155ZM18.83 13.596C18.83 14.2267 18.7273 14.7675 18.522 15.2185C18.3166 15.6658 17.9885 16.0105 17.5375 16.2525C17.0901 16.4908 16.4998 16.61 15.7665 16.61C15.0331 16.61 14.441 16.489 13.99 16.247C13.5426 16.0013 13.2181 15.6493 13.0165 15.191C12.8148 14.729 12.714 14.1717 12.714 13.519V8.547H14.0835V13.6565C14.0835 14.2725 14.2338 14.7272 14.5345 15.0205C14.8388 15.3138 15.2495 15.4605 15.7665 15.4605C16.1148 15.4605 16.4173 15.3963 16.674 15.268C16.9306 15.1397 17.1286 14.9435 17.268 14.6795C17.4073 14.4118 17.477 14.0708 17.477 13.6565V8.547H18.83V13.596ZM23.5665 16.61C22.8552 16.61 22.2373 16.4468 21.713 16.1205C21.1887 15.7942 20.7853 15.3285 20.503 14.7235C20.2207 14.1148 20.0795 13.3888 20.0795 12.5455C20.0795 11.6948 20.2262 10.9615 20.5195 10.3455C20.8128 9.7295 21.2253 9.25833 21.757 8.932C22.2923 8.602 22.9193 8.437 23.638 8.437C24.078 8.437 24.4832 8.51033 24.8535 8.657C25.2275 8.80367 25.5538 9.00167 25.8325 9.251C26.1148 9.50033 26.3367 9.7845 26.498 10.1035C26.6593 10.4225 26.7492 10.7543 26.7675 11.099H25.354C25.3027 10.8277 25.1982 10.5783 25.0405 10.351C24.8865 10.12 24.6867 9.93483 24.441 9.7955C24.199 9.65617 23.9222 9.5865 23.6105 9.5865C23.2108 9.5865 22.8533 9.68733 22.538 9.889C22.2263 10.0907 21.9807 10.4078 21.801 10.8405C21.625 11.2695 21.537 11.8268 21.537 12.5125C21.537 13.0552 21.592 13.5135 21.702 13.8875C21.8157 14.2578 21.9697 14.5567 22.164 14.784C22.362 15.0077 22.5893 15.1708 22.846 15.2735C23.1027 15.3725 23.374 15.422 23.66 15.422C23.9387 15.422 24.1843 15.3743 24.397 15.279C24.6097 15.1837 24.7893 15.059 24.936 14.905C25.0863 14.751 25.2018 14.586 25.2825 14.41C25.3668 14.2303 25.4163 14.0562 25.431 13.8875L25.4805 13.3045H23.704V12.3585L26.8775 12.3695V16.5H25.9315V15.3835C25.7958 15.5852 25.6235 15.7795 25.4145 15.9665C25.2092 16.1535 24.9562 16.3075 24.6555 16.4285C24.3585 16.5495 23.9955 16.61 23.5665 16.61Z" fill="black"/>
<path d="M7.13244 32.5V31.46V30.924C7.13244 30.332 7.24177 29.8227 7.46044 29.396C7.6791 28.964 7.96977 28.588 8.33244 28.268C8.6951 27.948 9.09244 27.6653 9.52444 27.42C9.96177 27.1693 10.3938 26.9347 10.8204 26.716C11.2524 26.492 11.6498 26.2627 12.0124 26.028C12.3751 25.788 12.6658 25.5213 12.8844 25.228C13.1084 24.9347 13.2204 24.5853 13.2204 24.18C13.2204 23.6627 13.0364 23.2413 12.6684 22.916C12.3058 22.5853 11.8124 22.42 11.1884 22.42C10.5271 22.42 9.98044 22.6093 9.54844 22.988C9.12177 23.3667 8.86844 23.9 8.78844 24.588H6.90044C6.9111 23.884 7.0791 23.244 7.40444 22.668C7.72977 22.092 8.21244 21.6333 8.85244 21.292C9.49244 20.9453 10.2898 20.772 11.2444 20.772C12.0711 20.772 12.7831 20.916 13.3804 21.204C13.9831 21.4867 14.4471 21.884 14.7724 22.396C15.1031 22.9027 15.2684 23.4947 15.2684 24.172C15.2684 24.764 15.1591 25.2707 14.9404 25.692C14.7271 26.1133 14.4418 26.4787 14.0844 26.788C13.7324 27.092 13.3431 27.3613 12.9164 27.596C12.4951 27.8307 12.0711 28.052 11.6444 28.26C11.2231 28.4627 10.8338 28.676 10.4764 28.9C10.1244 29.1187 9.8391 29.3693 9.62044 29.652C9.4071 29.9347 9.30044 30.2733 9.30044 30.668V30.836H15.2924V32.5H7.13244ZM16.6954 20.932H25.1034V22.556C24.7141 23.0627 24.3274 23.6493 23.9434 24.316C23.5594 24.9773 23.1914 25.6787 22.8394 26.42C22.4874 27.156 22.1728 27.8947 21.8954 28.636C21.6181 29.372 21.3914 30.0733 21.2154 30.74C21.0394 31.4067 20.9328 31.9933 20.8954 32.5H18.7914C18.8554 32.004 18.9834 31.3853 19.1754 30.644C19.3728 29.8973 19.6421 29.076 19.9834 28.18C20.3248 27.2787 20.7488 26.348 21.2554 25.388C21.7621 24.428 22.3541 23.484 23.0314 22.556H16.6954V20.932Z" fill="black"/>
<defs>
<linearGradient id="paint0_linear_67_12347" x1="203" y1="20.2198" x2="679" y2="20.2198" gradientUnits="userSpaceOnUse">
<stop stop-color="#127896"/>
<stop offset="0.28" stop-color="#00A37A"/>
<stop offset="0.81" stop-color="#00A37A"/>
<stop offset="1" stop-color="#127896"/>
</linearGradient>
</defs>
</svg>
