<svg width="814" height="40" viewBox="0 0 814 40" fill="none" xmlns="http://www.w3.org/2000/svg">
<path d="M203 8C203 3.58172 206.582 0 211 0H671C675.418 0 679 3.58172 679 8V32C679 36.4183 675.418 40 671 40H211C206.582 40 203 36.4183 203 32V8Z" fill="url(#paint0_linear_67_12320)"/>
<path d="M788.126 26.5V25.483V24.952C788.126 24.286 788.249 23.71 788.495 23.224C788.747 22.738 789.077 22.315 789.485 21.955C789.899 21.589 790.349 21.262 790.835 20.974C791.327 20.686 791.816 20.41 792.302 20.146C792.794 19.876 793.244 19.597 793.652 19.309C794.06 19.015 794.387 18.685 794.633 18.319C794.885 17.947 795.011 17.509 795.011 17.005C795.011 16.345 794.777 15.808 794.309 15.394C793.847 14.98 793.22 14.773 792.428 14.773C791.576 14.773 790.892 15.013 790.376 15.493C789.86 15.973 789.569 16.612 789.503 17.41H787.847C787.865 16.66 788.051 15.976 788.405 15.358C788.759 14.734 789.278 14.236 789.962 13.864C790.646 13.492 791.489 13.306 792.491 13.306C793.361 13.306 794.117 13.462 794.759 13.774C795.401 14.08 795.896 14.512 796.244 15.07C796.598 15.622 796.775 16.267 796.775 17.005C796.775 17.677 796.652 18.253 796.406 18.733C796.16 19.213 795.833 19.63 795.425 19.984C795.023 20.332 794.582 20.644 794.102 20.92C793.622 21.196 793.139 21.463 792.653 21.721C792.167 21.973 791.723 22.24 791.321 22.522C790.919 22.798 790.595 23.116 790.349 23.476C790.103 23.836 789.98 24.265 789.98 24.763V25.024H796.847V26.5H788.126ZM798.687 17.275C798.687 16.435 798.891 15.721 799.299 15.133C799.707 14.539 800.25 14.086 800.928 13.774C801.612 13.462 802.365 13.306 803.187 13.306C804.087 13.306 804.882 13.438 805.572 13.702C806.262 13.96 806.802 14.338 807.192 14.836C807.582 15.334 807.777 15.943 807.777 16.663C807.777 17.305 807.573 17.887 807.165 18.409C806.757 18.925 806.133 19.33 805.293 19.624C805.863 19.78 806.361 20.008 806.787 20.308C807.213 20.608 807.543 20.977 807.777 21.415C808.011 21.847 808.128 22.345 808.128 22.909C808.128 23.503 808.002 24.037 807.75 24.511C807.504 24.979 807.156 25.378 806.706 25.708C806.256 26.032 805.725 26.281 805.113 26.455C804.501 26.623 803.835 26.704 803.115 26.698C802.221 26.692 801.432 26.527 800.748 26.203C800.07 25.879 799.536 25.426 799.146 24.844C798.756 24.256 798.546 23.56 798.516 22.756H800.181C800.307 23.566 800.637 24.187 801.171 24.619C801.705 25.051 802.374 25.267 803.178 25.267C803.814 25.267 804.369 25.168 804.843 24.97C805.317 24.766 805.683 24.487 805.941 24.133C806.199 23.779 806.328 23.365 806.328 22.891C806.328 22.369 806.184 21.928 805.896 21.568C805.608 21.208 805.215 20.935 804.717 20.749C804.219 20.557 803.664 20.458 803.052 20.452L801.882 20.425V19.012L802.998 18.985C803.568 18.973 804.078 18.865 804.528 18.661C804.978 18.451 805.332 18.178 805.59 17.842C805.854 17.5 805.986 17.125 805.986 16.717C805.986 16.357 805.875 16.024 805.653 15.718C805.431 15.406 805.11 15.157 804.69 14.971C804.276 14.785 803.772 14.692 803.178 14.692C802.71 14.692 802.263 14.785 801.837 14.971C801.411 15.151 801.06 15.43 800.784 15.808C800.508 16.186 800.361 16.675 800.343 17.275H798.687Z" fill="black"/>
<path d="M754.433 26.5V25.483V24.952C754.433 24.286 754.556 23.71 754.802 23.224C755.054 22.738 755.384 22.315 755.792 21.955C756.206 21.589 756.656 21.262 757.142 20.974C757.634 20.686 758.123 20.41 758.609 20.146C759.101 19.876 759.551 19.597 759.959 19.309C760.367 19.015 760.694 18.685 760.94 18.319C761.192 17.947 761.318 17.509 761.318 17.005C761.318 16.345 761.084 15.808 760.616 15.394C760.154 14.98 759.527 14.773 758.735 14.773C757.883 14.773 757.199 15.013 756.683 15.493C756.167 15.973 755.876 16.612 755.81 17.41H754.154C754.172 16.66 754.358 15.976 754.712 15.358C755.066 14.734 755.585 14.236 756.269 13.864C756.953 13.492 757.796 13.306 758.798 13.306C759.668 13.306 760.424 13.462 761.066 13.774C761.708 14.08 762.203 14.512 762.551 15.07C762.905 15.622 763.082 16.267 763.082 17.005C763.082 17.677 762.959 18.253 762.713 18.733C762.467 19.213 762.14 19.63 761.732 19.984C761.33 20.332 760.889 20.644 760.409 20.92C759.929 21.196 759.446 21.463 758.96 21.721C758.474 21.973 758.03 22.24 757.628 22.522C757.226 22.798 756.902 23.116 756.656 23.476C756.41 23.836 756.287 24.265 756.287 24.763V25.024H763.154V26.5H754.433ZM765.076 26.5V25.483V24.952C765.076 24.286 765.199 23.71 765.445 23.224C765.697 22.738 766.027 22.315 766.435 21.955C766.849 21.589 767.299 21.262 767.785 20.974C768.277 20.686 768.766 20.41 769.252 20.146C769.744 19.876 770.194 19.597 770.602 19.309C771.01 19.015 771.337 18.685 771.583 18.319C771.835 17.947 771.961 17.509 771.961 17.005C771.961 16.345 771.727 15.808 771.259 15.394C770.797 14.98 770.17 14.773 769.378 14.773C768.526 14.773 767.842 15.013 767.326 15.493C766.81 15.973 766.519 16.612 766.453 17.41H764.797C764.815 16.66 765.001 15.976 765.355 15.358C765.709 14.734 766.228 14.236 766.912 13.864C767.596 13.492 768.439 13.306 769.441 13.306C770.311 13.306 771.067 13.462 771.709 13.774C772.351 14.08 772.846 14.512 773.194 15.07C773.548 15.622 773.725 16.267 773.725 17.005C773.725 17.677 773.602 18.253 773.356 18.733C773.11 19.213 772.783 19.63 772.375 19.984C771.973 20.332 771.532 20.644 771.052 20.92C770.572 21.196 770.089 21.463 769.603 21.721C769.117 21.973 768.673 22.24 768.271 22.522C767.869 22.798 767.545 23.116 767.299 23.476C767.053 23.836 766.93 24.265 766.93 24.763V25.024H773.797V26.5H765.076Z" fill="black"/>
<path d="M722.13 26.5V25.483V24.952C722.13 24.286 722.253 23.71 722.499 23.224C722.751 22.738 723.081 22.315 723.489 21.955C723.903 21.589 724.353 21.262 724.839 20.974C725.331 20.686 725.82 20.41 726.306 20.146C726.798 19.876 727.248 19.597 727.656 19.309C728.064 19.015 728.391 18.685 728.637 18.319C728.889 17.947 729.015 17.509 729.015 17.005C729.015 16.345 728.781 15.808 728.313 15.394C727.851 14.98 727.224 14.773 726.432 14.773C725.58 14.773 724.896 15.013 724.38 15.493C723.864 15.973 723.573 16.612 723.507 17.41H721.851C721.869 16.66 722.055 15.976 722.409 15.358C722.763 14.734 723.282 14.236 723.966 13.864C724.65 13.492 725.493 13.306 726.495 13.306C727.365 13.306 728.121 13.462 728.763 13.774C729.405 14.08 729.9 14.512 730.248 15.07C730.602 15.622 730.779 16.267 730.779 17.005C730.779 17.677 730.656 18.253 730.41 18.733C730.164 19.213 729.837 19.63 729.429 19.984C729.027 20.332 728.586 20.644 728.106 20.92C727.626 21.196 727.143 21.463 726.657 21.721C726.171 21.973 725.727 22.24 725.325 22.522C724.923 22.798 724.599 23.116 724.353 23.476C724.107 23.836 723.984 24.265 723.984 24.763V25.024H730.851V26.5H722.13ZM735.004 26.5V16.141H732.493V15.052C733.273 15.052 733.879 14.995 734.311 14.881C734.743 14.767 735.049 14.593 735.229 14.359C735.415 14.125 735.517 13.834 735.535 13.486H736.723V26.5H735.004Z" fill="black"/>
<path d="M686.284 26.5V25.483V24.952C686.284 24.286 686.407 23.71 686.653 23.224C686.905 22.738 687.235 22.315 687.643 21.955C688.057 21.589 688.507 21.262 688.993 20.974C689.485 20.686 689.974 20.41 690.46 20.146C690.952 19.876 691.402 19.597 691.81 19.309C692.218 19.015 692.545 18.685 692.791 18.319C693.043 17.947 693.169 17.509 693.169 17.005C693.169 16.345 692.935 15.808 692.467 15.394C692.005 14.98 691.378 14.773 690.586 14.773C689.734 14.773 689.05 15.013 688.534 15.493C688.018 15.973 687.727 16.612 687.661 17.41H686.005C686.023 16.66 686.209 15.976 686.563 15.358C686.917 14.734 687.436 14.236 688.12 13.864C688.804 13.492 689.647 13.306 690.649 13.306C691.519 13.306 692.275 13.462 692.917 13.774C693.559 14.08 694.054 14.512 694.402 15.07C694.756 15.622 694.933 16.267 694.933 17.005C694.933 17.677 694.81 18.253 694.564 18.733C694.318 19.213 693.991 19.63 693.583 19.984C693.181 20.332 692.74 20.644 692.26 20.92C691.78 21.196 691.297 21.463 690.811 21.721C690.325 21.973 689.881 22.24 689.479 22.522C689.077 22.798 688.753 23.116 688.507 23.476C688.261 23.836 688.138 24.265 688.138 24.763V25.024H695.005V26.5H686.284ZM701.328 13.306C702.738 13.306 703.86 13.873 704.694 15.007C705.534 16.135 705.954 17.806 705.954 20.02C705.954 22.222 705.537 23.887 704.703 25.015C703.869 26.137 702.738 26.698 701.31 26.698C699.888 26.698 698.76 26.14 697.926 25.024C697.092 23.902 696.675 22.243 696.675 20.047C696.675 18.565 696.867 17.323 697.251 16.321C697.635 15.319 698.175 14.566 698.871 14.062C699.567 13.558 700.386 13.306 701.328 13.306ZM701.328 25.258C702.258 25.258 702.96 24.85 703.434 24.034C703.914 23.212 704.154 21.877 704.154 20.029C704.154 18.145 703.911 16.789 703.425 15.961C702.945 15.127 702.243 14.71 701.319 14.71C700.401 14.71 699.693 15.13 699.195 15.97C698.703 16.804 698.457 18.157 698.457 20.029C698.457 21.871 698.703 23.203 699.195 24.025C699.687 24.847 700.398 25.258 701.328 25.258Z" fill="black"/>
<path d="M656.107 26.5V16.141H653.596V15.052C654.376 15.052 654.982 14.995 655.414 14.881C655.846 14.767 656.152 14.593 656.332 14.359C656.518 14.125 656.62 13.834 656.638 13.486H657.826V26.5H656.107ZM665.238 26.698C664.518 26.698 663.846 26.563 663.222 26.293C662.604 26.017 662.085 25.627 661.665 25.123C661.251 24.619 660.996 24.016 660.9 23.314H662.52C662.67 23.908 662.982 24.391 663.456 24.763C663.93 25.129 664.506 25.312 665.184 25.312C665.952 25.312 666.609 25.111 667.155 24.709C667.707 24.307 668.118 23.686 668.388 22.846C668.658 22.006 668.76 20.929 668.694 19.615C668.544 20.071 668.307 20.473 667.983 20.821C667.659 21.163 667.269 21.433 666.813 21.631C666.357 21.829 665.853 21.928 665.301 21.928C664.443 21.928 663.687 21.76 663.033 21.424C662.379 21.088 661.869 20.608 661.503 19.984C661.143 19.36 660.963 18.613 660.963 17.743C660.963 16.873 661.143 16.105 661.503 15.439C661.863 14.773 662.379 14.251 663.051 13.873C663.723 13.495 664.521 13.306 665.445 13.306C666.453 13.306 667.326 13.567 668.064 14.089C668.802 14.605 669.372 15.349 669.774 16.321C670.176 17.287 670.377 18.448 670.377 19.804C670.377 21.262 670.176 22.504 669.774 23.53C669.378 24.556 668.796 25.342 668.028 25.888C667.266 26.428 666.336 26.698 665.238 26.698ZM665.481 20.515C665.961 20.515 666.417 20.404 666.849 20.182C667.281 19.96 667.632 19.666 667.902 19.3C668.178 18.928 668.316 18.523 668.316 18.085C668.322 17.413 668.208 16.822 667.974 16.312C667.74 15.796 667.407 15.394 666.975 15.106C666.543 14.812 666.039 14.665 665.463 14.665C664.935 14.665 664.467 14.791 664.059 15.043C663.657 15.295 663.339 15.646 663.105 16.096C662.877 16.546 662.763 17.068 662.763 17.662C662.763 18.532 662.994 19.225 663.456 19.741C663.918 20.257 664.593 20.515 665.481 20.515Z" fill="white"/>
<path d="M621.896 26.5V16.141H619.385V15.052C620.165 15.052 620.771 14.995 621.203 14.881C621.635 14.767 621.941 14.593 622.121 14.359C622.307 14.125 622.409 13.834 622.427 13.486H623.615V26.5H621.896ZM631.621 13.306C632.455 13.306 633.202 13.444 633.862 13.72C634.522 13.996 635.044 14.398 635.428 14.926C635.812 15.454 636.004 16.096 636.004 16.852C636.004 17.56 635.812 18.154 635.428 18.634C635.05 19.114 634.561 19.48 633.961 19.732C634.399 19.816 634.816 20.02 635.212 20.344C635.614 20.668 635.944 21.061 636.202 21.523C636.46 21.985 636.589 22.468 636.589 22.972C636.589 23.722 636.382 24.376 635.968 24.934C635.56 25.492 634.984 25.927 634.24 26.239C633.496 26.545 632.623 26.698 631.621 26.698C630.625 26.698 629.755 26.545 629.011 26.239C628.267 25.927 627.688 25.492 627.274 24.934C626.866 24.376 626.662 23.722 626.662 22.972C626.662 22.468 626.788 21.985 627.04 21.523C627.298 21.061 627.628 20.668 628.03 20.344C628.432 20.02 628.852 19.816 629.29 19.732C628.696 19.48 628.204 19.114 627.814 18.634C627.43 18.154 627.238 17.56 627.238 16.852C627.238 16.096 627.43 15.454 627.814 14.926C628.198 14.398 628.72 13.996 629.38 13.72C630.046 13.444 630.793 13.306 631.621 13.306ZM631.621 19.03C632.413 19.03 633.055 18.835 633.547 18.445C634.045 18.055 634.294 17.512 634.294 16.816C634.294 16.114 634.045 15.562 633.547 15.16C633.049 14.752 632.407 14.548 631.621 14.548C630.835 14.548 630.193 14.752 629.695 15.16C629.197 15.568 628.948 16.12 628.948 16.816C628.948 17.512 629.197 18.055 629.695 18.445C630.193 18.835 630.835 19.03 631.621 19.03ZM631.621 25.348C632.587 25.348 633.358 25.132 633.934 24.7C634.51 24.262 634.798 23.683 634.798 22.963C634.798 22.489 634.666 22.066 634.402 21.694C634.144 21.322 633.778 21.031 633.304 20.821C632.83 20.605 632.269 20.497 631.621 20.497C630.979 20.497 630.421 20.605 629.947 20.821C629.479 21.031 629.113 21.322 628.849 21.694C628.591 22.066 628.462 22.489 628.462 22.963C628.462 23.683 628.747 24.262 629.317 24.7C629.893 25.132 630.661 25.348 631.621 25.348Z" fill="white"/>
<path d="M588.318 26.5V16.141H585.807V15.052C586.587 15.052 587.193 14.995 587.625 14.881C588.057 14.767 588.363 14.593 588.543 14.359C588.729 14.125 588.831 13.834 588.849 13.486H590.037V26.5H588.318ZM593.057 13.486H602.192V14.926C601.73 15.556 601.271 16.273 600.815 17.077C600.365 17.875 599.936 18.712 599.528 19.588C599.12 20.458 598.754 21.319 598.43 22.171C598.106 23.017 597.836 23.815 597.62 24.565C597.41 25.309 597.275 25.954 597.215 26.5H595.406C595.502 25.906 595.673 25.171 595.919 24.295C596.171 23.419 596.501 22.462 596.909 21.424C597.317 20.38 597.809 19.303 598.385 18.193C598.961 17.083 599.621 15.994 600.365 14.926H593.057V13.486Z" fill="white"/>
<path d="M554.124 26.5V16.141H551.613V15.052C552.393 15.052 552.999 14.995 553.431 14.881C553.863 14.767 554.169 14.593 554.349 14.359C554.535 14.125 554.637 13.834 554.655 13.486H555.843V26.5H554.124ZM563.984 13.306C564.704 13.306 565.367 13.441 565.973 13.711C566.585 13.981 567.092 14.368 567.494 14.872C567.896 15.376 568.145 15.985 568.241 16.699H566.675C566.501 16.081 566.186 15.592 565.73 15.232C565.274 14.872 564.701 14.692 564.011 14.692C563.243 14.692 562.601 14.911 562.085 15.349C561.575 15.781 561.203 16.417 560.969 17.257C560.735 18.091 560.654 19.117 560.726 20.335C560.888 19.897 561.134 19.513 561.464 19.183C561.8 18.847 562.19 18.589 562.634 18.409C563.078 18.223 563.558 18.13 564.074 18.13C564.932 18.13 565.682 18.298 566.324 18.634C566.966 18.964 567.467 19.438 567.827 20.056C568.187 20.668 568.367 21.4 568.367 22.252C568.367 23.122 568.181 23.893 567.809 24.565C567.443 25.231 566.921 25.753 566.243 26.131C565.565 26.509 564.764 26.698 563.84 26.698C562.832 26.698 561.956 26.437 561.212 25.915C560.474 25.393 559.901 24.649 559.493 23.683C559.091 22.711 558.89 21.547 558.89 20.191C558.89 18.799 559.085 17.587 559.475 16.555C559.871 15.523 560.447 14.725 561.203 14.161C561.959 13.591 562.886 13.306 563.984 13.306ZM563.804 19.48C563.33 19.48 562.874 19.594 562.436 19.822C562.004 20.044 561.65 20.338 561.374 20.704C561.104 21.07 560.969 21.475 560.969 21.919C560.963 22.579 561.077 23.167 561.311 23.683C561.551 24.193 561.887 24.595 562.319 24.889C562.751 25.177 563.252 25.321 563.822 25.321C564.356 25.321 564.83 25.195 565.244 24.943C565.658 24.691 565.982 24.34 566.216 23.89C566.456 23.44 566.576 22.921 566.576 22.333C566.576 21.739 566.468 21.229 566.252 20.803C566.042 20.377 565.73 20.05 565.316 19.822C564.902 19.594 564.398 19.48 563.804 19.48Z" fill="white"/>
<path d="M519.957 26.5V16.141H517.446V15.052C518.226 15.052 518.832 14.995 519.264 14.881C519.696 14.767 520.002 14.593 520.182 14.359C520.368 14.125 520.47 13.834 520.488 13.486H521.676V26.5H519.957ZM525.965 13.486H533.732L533.687 14.926H527.387L527.054 19.129C527.486 18.727 527.957 18.442 528.467 18.274C528.983 18.1 529.541 18.013 530.141 18.013C530.927 18.013 531.65 18.175 532.31 18.499C532.976 18.817 533.51 19.291 533.912 19.921C534.314 20.545 534.515 21.319 534.515 22.243C534.515 23.143 534.32 23.926 533.93 24.592C533.54 25.258 532.991 25.777 532.283 26.149C531.575 26.515 530.744 26.698 529.79 26.698C528.986 26.698 528.242 26.557 527.558 26.275C526.874 25.993 526.286 25.6 525.794 25.096C525.308 24.592 524.951 24.013 524.723 23.359L526.163 22.756C526.379 23.248 526.649 23.686 526.973 24.07C527.303 24.454 527.693 24.754 528.143 24.97C528.593 25.186 529.103 25.294 529.673 25.294C530.597 25.294 531.338 25.027 531.896 24.493C532.46 23.953 532.742 23.221 532.742 22.297C532.742 21.721 532.61 21.22 532.346 20.794C532.082 20.362 531.725 20.026 531.275 19.786C530.831 19.546 530.339 19.426 529.799 19.426C529.445 19.426 529.115 19.459 528.809 19.525C528.503 19.585 528.2 19.705 527.9 19.885C527.6 20.065 527.285 20.338 526.955 20.704C526.919 20.722 526.892 20.731 526.874 20.731C526.856 20.725 526.826 20.713 526.784 20.695L525.38 20.254L525.965 13.486Z" fill="white"/>
<path d="M486.063 26.5V16.141H483.552V15.052C484.332 15.052 484.938 14.995 485.37 14.881C485.802 14.767 486.108 14.593 486.288 14.359C486.474 14.125 486.576 13.834 486.594 13.486H487.782V26.5H486.063ZM496.868 13.486H498.56V21.712H500.72V23.179H498.56V26.5H496.931V23.179H490.802V21.658L496.868 13.486ZM492.395 21.712H496.895V15.673L492.395 21.712Z" fill="white"/>
<path d="M452.054 26.5V16.141H449.543V15.052C450.323 15.052 450.929 14.995 451.361 14.881C451.793 14.767 452.099 14.593 452.279 14.359C452.465 14.125 452.567 13.834 452.585 13.486H453.773V26.5H452.054ZM456.991 17.275C456.991 16.435 457.195 15.721 457.603 15.133C458.011 14.539 458.554 14.086 459.232 13.774C459.916 13.462 460.669 13.306 461.491 13.306C462.391 13.306 463.186 13.438 463.876 13.702C464.566 13.96 465.106 14.338 465.496 14.836C465.886 15.334 466.081 15.943 466.081 16.663C466.081 17.305 465.877 17.887 465.469 18.409C465.061 18.925 464.437 19.33 463.597 19.624C464.167 19.78 464.665 20.008 465.091 20.308C465.517 20.608 465.847 20.977 466.081 21.415C466.315 21.847 466.432 22.345 466.432 22.909C466.432 23.503 466.306 24.037 466.054 24.511C465.808 24.979 465.46 25.378 465.01 25.708C464.56 26.032 464.029 26.281 463.417 26.455C462.805 26.623 462.139 26.704 461.419 26.698C460.525 26.692 459.736 26.527 459.052 26.203C458.374 25.879 457.84 25.426 457.45 24.844C457.06 24.256 456.85 23.56 456.82 22.756H458.485C458.611 23.566 458.941 24.187 459.475 24.619C460.009 25.051 460.678 25.267 461.482 25.267C462.118 25.267 462.673 25.168 463.147 24.97C463.621 24.766 463.987 24.487 464.245 24.133C464.503 23.779 464.632 23.365 464.632 22.891C464.632 22.369 464.488 21.928 464.2 21.568C463.912 21.208 463.519 20.935 463.021 20.749C462.523 20.557 461.968 20.458 461.356 20.452L460.186 20.425V19.012L461.302 18.985C461.872 18.973 462.382 18.865 462.832 18.661C463.282 18.451 463.636 18.178 463.894 17.842C464.158 17.5 464.29 17.125 464.29 16.717C464.29 16.357 464.179 16.024 463.957 15.718C463.735 15.406 463.414 15.157 462.994 14.971C462.58 14.785 462.076 14.692 461.482 14.692C461.014 14.692 460.567 14.785 460.141 14.971C459.715 15.151 459.364 15.43 459.088 15.808C458.812 16.186 458.665 16.675 458.647 17.275H456.991Z" fill="white"/>
<path d="M418.362 26.5V16.141H415.851V15.052C416.631 15.052 417.237 14.995 417.669 14.881C418.101 14.767 418.407 14.593 418.587 14.359C418.773 14.125 418.875 13.834 418.893 13.486H420.081V26.5H418.362ZM423.38 26.5V25.483V24.952C423.38 24.286 423.503 23.71 423.749 23.224C424.001 22.738 424.331 22.315 424.739 21.955C425.153 21.589 425.603 21.262 426.089 20.974C426.581 20.686 427.07 20.41 427.556 20.146C428.048 19.876 428.498 19.597 428.906 19.309C429.314 19.015 429.641 18.685 429.887 18.319C430.139 17.947 430.265 17.509 430.265 17.005C430.265 16.345 430.031 15.808 429.563 15.394C429.101 14.98 428.474 14.773 427.682 14.773C426.83 14.773 426.146 15.013 425.63 15.493C425.114 15.973 424.823 16.612 424.757 17.41H423.101C423.119 16.66 423.305 15.976 423.659 15.358C424.013 14.734 424.532 14.236 425.216 13.864C425.9 13.492 426.743 13.306 427.745 13.306C428.615 13.306 429.371 13.462 430.013 13.774C430.655 14.08 431.15 14.512 431.498 15.07C431.852 15.622 432.029 16.267 432.029 17.005C432.029 17.677 431.906 18.253 431.66 18.733C431.414 19.213 431.087 19.63 430.679 19.984C430.277 20.332 429.836 20.644 429.356 20.92C428.876 21.196 428.393 21.463 427.907 21.721C427.421 21.973 426.977 22.24 426.575 22.522C426.173 22.798 425.849 23.116 425.603 23.476C425.357 23.836 425.234 24.265 425.234 24.763V25.024H432.101V26.5H423.38Z" fill="white"/>
<path d="M386.058 26.5V16.141H383.547V15.052C384.327 15.052 384.933 14.995 385.365 14.881C385.797 14.767 386.103 14.593 386.283 14.359C386.469 14.125 386.571 13.834 386.589 13.486H387.777V26.5H386.058ZM393.308 26.5V16.141H390.797V15.052C391.577 15.052 392.183 14.995 392.615 14.881C393.047 14.767 393.353 14.593 393.533 14.359C393.719 14.125 393.821 13.834 393.839 13.486H395.027V26.5H393.308Z" fill="white"/>
<path d="M350.212 26.5V16.141H347.701V15.052C348.481 15.052 349.087 14.995 349.519 14.881C349.951 14.767 350.257 14.593 350.437 14.359C350.623 14.125 350.725 13.834 350.743 13.486H351.931V26.5H350.212ZM359.631 13.306C361.041 13.306 362.163 13.873 362.997 15.007C363.837 16.135 364.257 17.806 364.257 20.02C364.257 22.222 363.84 23.887 363.006 25.015C362.172 26.137 361.041 26.698 359.613 26.698C358.191 26.698 357.063 26.14 356.229 25.024C355.395 23.902 354.978 22.243 354.978 20.047C354.978 18.565 355.17 17.323 355.554 16.321C355.938 15.319 356.478 14.566 357.174 14.062C357.87 13.558 358.689 13.306 359.631 13.306ZM359.631 25.258C360.561 25.258 361.263 24.85 361.737 24.034C362.217 23.212 362.457 21.877 362.457 20.029C362.457 18.145 362.214 16.789 361.728 15.961C361.248 15.127 360.546 14.71 359.622 14.71C358.704 14.71 357.996 15.13 357.498 15.97C357.006 16.804 356.76 18.157 356.76 20.029C356.76 21.871 357.006 23.203 357.498 24.025C357.99 24.847 358.701 25.258 359.631 25.258Z" fill="white"/>
<path d="M321.613 26.698C320.893 26.698 320.221 26.563 319.597 26.293C318.979 26.017 318.46 25.627 318.04 25.123C317.626 24.619 317.371 24.016 317.275 23.314H318.895C319.045 23.908 319.357 24.391 319.831 24.763C320.305 25.129 320.881 25.312 321.559 25.312C322.327 25.312 322.984 25.111 323.53 24.709C324.082 24.307 324.493 23.686 324.763 22.846C325.033 22.006 325.135 20.929 325.069 19.615C324.919 20.071 324.682 20.473 324.358 20.821C324.034 21.163 323.644 21.433 323.188 21.631C322.732 21.829 322.228 21.928 321.676 21.928C320.818 21.928 320.062 21.76 319.408 21.424C318.754 21.088 318.244 20.608 317.878 19.984C317.518 19.36 317.338 18.613 317.338 17.743C317.338 16.873 317.518 16.105 317.878 15.439C318.238 14.773 318.754 14.251 319.426 13.873C320.098 13.495 320.896 13.306 321.82 13.306C322.828 13.306 323.701 13.567 324.439 14.089C325.177 14.605 325.747 15.349 326.149 16.321C326.551 17.287 326.752 18.448 326.752 19.804C326.752 21.262 326.551 22.504 326.149 23.53C325.753 24.556 325.171 25.342 324.403 25.888C323.641 26.428 322.711 26.698 321.613 26.698ZM321.856 20.515C322.336 20.515 322.792 20.404 323.224 20.182C323.656 19.96 324.007 19.666 324.277 19.3C324.553 18.928 324.691 18.523 324.691 18.085C324.697 17.413 324.583 16.822 324.349 16.312C324.115 15.796 323.782 15.394 323.35 15.106C322.918 14.812 322.414 14.665 321.838 14.665C321.31 14.665 320.842 14.791 320.434 15.043C320.032 15.295 319.714 15.646 319.48 16.096C319.252 16.546 319.138 17.068 319.138 17.662C319.138 18.532 319.369 19.225 319.831 19.741C320.293 20.257 320.968 20.515 321.856 20.515Z" fill="white"/>
<path d="M287.996 13.306C288.83 13.306 289.577 13.444 290.237 13.72C290.897 13.996 291.419 14.398 291.803 14.926C292.187 15.454 292.379 16.096 292.379 16.852C292.379 17.56 292.187 18.154 291.803 18.634C291.425 19.114 290.936 19.48 290.336 19.732C290.774 19.816 291.191 20.02 291.587 20.344C291.989 20.668 292.319 21.061 292.577 21.523C292.835 21.985 292.964 22.468 292.964 22.972C292.964 23.722 292.757 24.376 292.343 24.934C291.935 25.492 291.359 25.927 290.615 26.239C289.871 26.545 288.998 26.698 287.996 26.698C287 26.698 286.13 26.545 285.386 26.239C284.642 25.927 284.063 25.492 283.649 24.934C283.241 24.376 283.037 23.722 283.037 22.972C283.037 22.468 283.163 21.985 283.415 21.523C283.673 21.061 284.003 20.668 284.405 20.344C284.807 20.02 285.227 19.816 285.665 19.732C285.071 19.48 284.579 19.114 284.189 18.634C283.805 18.154 283.613 17.56 283.613 16.852C283.613 16.096 283.805 15.454 284.189 14.926C284.573 14.398 285.095 13.996 285.755 13.72C286.421 13.444 287.168 13.306 287.996 13.306ZM287.996 19.03C288.788 19.03 289.43 18.835 289.922 18.445C290.42 18.055 290.669 17.512 290.669 16.816C290.669 16.114 290.42 15.562 289.922 15.16C289.424 14.752 288.782 14.548 287.996 14.548C287.21 14.548 286.568 14.752 286.07 15.16C285.572 15.568 285.323 16.12 285.323 16.816C285.323 17.512 285.572 18.055 286.07 18.445C286.568 18.835 287.21 19.03 287.996 19.03ZM287.996 25.348C288.962 25.348 289.733 25.132 290.309 24.7C290.885 24.262 291.173 23.683 291.173 22.963C291.173 22.489 291.041 22.066 290.777 21.694C290.519 21.322 290.153 21.031 289.679 20.821C289.205 20.605 288.644 20.497 287.996 20.497C287.354 20.497 286.796 20.605 286.322 20.821C285.854 21.031 285.488 21.322 285.224 21.694C284.966 22.066 284.837 22.489 284.837 22.963C284.837 23.683 285.122 24.262 285.692 24.7C286.268 25.132 287.036 25.348 287.996 25.348Z" fill="white"/>
<path d="M249.432 13.486H258.567V14.926C258.105 15.556 257.646 16.273 257.19 17.077C256.74 17.875 256.311 18.712 255.903 19.588C255.495 20.458 255.129 21.319 254.805 22.171C254.481 23.017 254.211 23.815 253.995 24.565C253.785 25.309 253.65 25.954 253.59 26.5H251.781C251.877 25.906 252.048 25.171 252.294 24.295C252.546 23.419 252.876 22.462 253.284 21.424C253.692 20.38 254.184 19.303 254.76 18.193C255.336 17.083 255.996 15.994 256.74 14.926H249.432V13.486Z" fill="white"/>
<path d="M220.359 13.306C221.079 13.306 221.742 13.441 222.348 13.711C222.96 13.981 223.467 14.368 223.869 14.872C224.271 15.376 224.52 15.985 224.616 16.699H223.05C222.876 16.081 222.561 15.592 222.105 15.232C221.649 14.872 221.076 14.692 220.386 14.692C219.618 14.692 218.976 14.911 218.46 15.349C217.95 15.781 217.578 16.417 217.344 17.257C217.11 18.091 217.029 19.117 217.101 20.335C217.263 19.897 217.509 19.513 217.839 19.183C218.175 18.847 218.565 18.589 219.009 18.409C219.453 18.223 219.933 18.13 220.449 18.13C221.307 18.13 222.057 18.298 222.699 18.634C223.341 18.964 223.842 19.438 224.202 20.056C224.562 20.668 224.742 21.4 224.742 22.252C224.742 23.122 224.556 23.893 224.184 24.565C223.818 25.231 223.296 25.753 222.618 26.131C221.94 26.509 221.139 26.698 220.215 26.698C219.207 26.698 218.331 26.437 217.587 25.915C216.849 25.393 216.276 24.649 215.868 23.683C215.466 22.711 215.265 21.547 215.265 20.191C215.265 18.799 215.46 17.587 215.85 16.555C216.246 15.523 216.822 14.725 217.578 14.161C218.334 13.591 219.261 13.306 220.359 13.306ZM220.179 19.48C219.705 19.48 219.249 19.594 218.811 19.822C218.379 20.044 218.025 20.338 217.749 20.704C217.479 21.07 217.344 21.475 217.344 21.919C217.338 22.579 217.452 23.167 217.686 23.683C217.926 24.193 218.262 24.595 218.694 24.889C219.126 25.177 219.627 25.321 220.197 25.321C220.731 25.321 221.205 25.195 221.619 24.943C222.033 24.691 222.357 24.34 222.591 23.89C222.831 23.44 222.951 22.921 222.951 22.333C222.951 21.739 222.843 21.229 222.627 20.803C222.417 20.377 222.105 20.05 221.691 19.822C221.277 19.594 220.773 19.48 220.179 19.48Z" fill="white"/>
<path d="M182.34 13.486H190.107L190.062 14.926H183.762L183.429 19.129C183.861 18.727 184.332 18.442 184.842 18.274C185.358 18.1 185.916 18.013 186.516 18.013C187.302 18.013 188.025 18.175 188.685 18.499C189.351 18.817 189.885 19.291 190.287 19.921C190.689 20.545 190.89 21.319 190.89 22.243C190.89 23.143 190.695 23.926 190.305 24.592C189.915 25.258 189.366 25.777 188.658 26.149C187.95 26.515 187.119 26.698 186.165 26.698C185.361 26.698 184.617 26.557 183.933 26.275C183.249 25.993 182.661 25.6 182.169 25.096C181.683 24.592 181.326 24.013 181.098 23.359L182.538 22.756C182.754 23.248 183.024 23.686 183.348 24.07C183.678 24.454 184.068 24.754 184.518 24.97C184.968 25.186 185.478 25.294 186.048 25.294C186.972 25.294 187.713 25.027 188.271 24.493C188.835 23.953 189.117 23.221 189.117 22.297C189.117 21.721 188.985 21.22 188.721 20.794C188.457 20.362 188.1 20.026 187.65 19.786C187.206 19.546 186.714 19.426 186.174 19.426C185.82 19.426 185.49 19.459 185.184 19.525C184.878 19.585 184.575 19.705 184.275 19.885C183.975 20.065 183.66 20.338 183.33 20.704C183.294 20.722 183.267 20.731 183.249 20.731C183.231 20.725 183.201 20.713 183.159 20.695L181.755 20.254L182.34 13.486Z" fill="black"/>
<path d="M153.243 13.486H154.935V21.712H157.095V23.179H154.935V26.5H153.306V23.179H147.177V21.658L153.243 13.486ZM148.77 21.712H153.27V15.673L148.77 21.712Z" fill="black"/>
<path d="M113.366 17.275C113.366 16.435 113.57 15.721 113.978 15.133C114.386 14.539 114.929 14.086 115.607 13.774C116.291 13.462 117.044 13.306 117.866 13.306C118.766 13.306 119.561 13.438 120.251 13.702C120.941 13.96 121.481 14.338 121.871 14.836C122.261 15.334 122.456 15.943 122.456 16.663C122.456 17.305 122.252 17.887 121.844 18.409C121.436 18.925 120.812 19.33 119.972 19.624C120.542 19.78 121.04 20.008 121.466 20.308C121.892 20.608 122.222 20.977 122.456 21.415C122.69 21.847 122.807 22.345 122.807 22.909C122.807 23.503 122.681 24.037 122.429 24.511C122.183 24.979 121.835 25.378 121.385 25.708C120.935 26.032 120.404 26.281 119.792 26.455C119.18 26.623 118.514 26.704 117.794 26.698C116.9 26.692 116.111 26.527 115.427 26.203C114.749 25.879 114.215 25.426 113.825 24.844C113.435 24.256 113.225 23.56 113.195 22.756H114.86C114.986 23.566 115.316 24.187 115.85 24.619C116.384 25.051 117.053 25.267 117.857 25.267C118.493 25.267 119.048 25.168 119.522 24.97C119.996 24.766 120.362 24.487 120.62 24.133C120.878 23.779 121.007 23.365 121.007 22.891C121.007 22.369 120.863 21.928 120.575 21.568C120.287 21.208 119.894 20.935 119.396 20.749C118.898 20.557 118.343 20.458 117.731 20.452L116.561 20.425V19.012L117.677 18.985C118.247 18.973 118.757 18.865 119.207 18.661C119.657 18.451 120.011 18.178 120.269 17.842C120.533 17.5 120.665 17.125 120.665 16.717C120.665 16.357 120.554 16.024 120.332 15.718C120.11 15.406 119.789 15.157 119.369 14.971C118.955 14.785 118.451 14.692 117.857 14.692C117.389 14.692 116.942 14.785 116.516 14.971C116.09 15.151 115.739 15.43 115.463 15.808C115.187 16.186 115.04 16.675 115.022 17.275H113.366Z" fill="black"/>
<path d="M79.7547 26.5V25.483V24.952C79.7547 24.286 79.8777 23.71 80.1237 23.224C80.3757 22.738 80.7057 22.315 81.1137 21.955C81.5277 21.589 81.9777 21.262 82.4637 20.974C82.9557 20.686 83.4447 20.41 83.9307 20.146C84.4227 19.876 84.8727 19.597 85.2807 19.309C85.6887 19.015 86.0157 18.685 86.2617 18.319C86.5137 17.947 86.6397 17.509 86.6397 17.005C86.6397 16.345 86.4057 15.808 85.9377 15.394C85.4757 14.98 84.8487 14.773 84.0567 14.773C83.2047 14.773 82.5207 15.013 82.0047 15.493C81.4887 15.973 81.1977 16.612 81.1317 17.41H79.4757C79.4937 16.66 79.6797 15.976 80.0337 15.358C80.3877 14.734 80.9067 14.236 81.5907 13.864C82.2747 13.492 83.1177 13.306 84.1197 13.306C84.9897 13.306 85.7457 13.462 86.3877 13.774C87.0297 14.08 87.5247 14.512 87.8727 15.07C88.2267 15.622 88.4037 16.267 88.4037 17.005C88.4037 17.677 88.2807 18.253 88.0347 18.733C87.7887 19.213 87.4617 19.63 87.0537 19.984C86.6517 20.332 86.2107 20.644 85.7307 20.92C85.2507 21.196 84.7677 21.463 84.2817 21.721C83.7957 21.973 83.3517 22.24 82.9497 22.522C82.5477 22.798 82.2237 23.116 81.9777 23.476C81.7317 23.836 81.6087 24.265 81.6087 24.763V25.024H88.4757V26.5H79.7547Z" fill="black"/>
<path d="M49.683 26.5V16.141H47.172V15.052C47.952 15.052 48.558 14.995 48.99 14.881C49.422 14.767 49.728 14.593 49.908 14.359C50.094 14.125 50.196 13.834 50.214 13.486H51.402V26.5H49.683Z" fill="black"/>
<path d="M4.63222 16.5L7.49222 8.547H8.93872L11.7932 16.5H10.4512L9.74172 14.5035H6.70572L5.97972 16.5H4.63222ZM7.01372 13.3155H9.41172L8.21822 9.8505L7.01372 13.3155ZM18.83 13.596C18.83 14.2267 18.7273 14.7675 18.522 15.2185C18.3166 15.6658 17.9885 16.0105 17.5375 16.2525C17.0901 16.4908 16.4998 16.61 15.7665 16.61C15.0331 16.61 14.441 16.489 13.99 16.247C13.5426 16.0013 13.2181 15.6493 13.0165 15.191C12.8148 14.729 12.714 14.1717 12.714 13.519V8.547H14.0835V13.6565C14.0835 14.2725 14.2338 14.7272 14.5345 15.0205C14.8388 15.3138 15.2495 15.4605 15.7665 15.4605C16.1148 15.4605 16.4173 15.3963 16.674 15.268C16.9306 15.1397 17.1286 14.9435 17.268 14.6795C17.4073 14.4118 17.477 14.0708 17.477 13.6565V8.547H18.83V13.596ZM23.5665 16.61C22.8552 16.61 22.2373 16.4468 21.713 16.1205C21.1887 15.7942 20.7853 15.3285 20.503 14.7235C20.2207 14.1148 20.0795 13.3888 20.0795 12.5455C20.0795 11.6948 20.2262 10.9615 20.5195 10.3455C20.8128 9.7295 21.2253 9.25833 21.757 8.932C22.2923 8.602 22.9193 8.437 23.638 8.437C24.078 8.437 24.4832 8.51033 24.8535 8.657C25.2275 8.80367 25.5538 9.00167 25.8325 9.251C26.1148 9.50033 26.3367 9.7845 26.498 10.1035C26.6593 10.4225 26.7492 10.7543 26.7675 11.099H25.354C25.3027 10.8277 25.1982 10.5783 25.0405 10.351C24.8865 10.12 24.6867 9.93483 24.441 9.7955C24.199 9.65617 23.9222 9.5865 23.6105 9.5865C23.2108 9.5865 22.8533 9.68733 22.538 9.889C22.2263 10.0907 21.9807 10.4078 21.801 10.8405C21.625 11.2695 21.537 11.8268 21.537 12.5125C21.537 13.0552 21.592 13.5135 21.702 13.8875C21.8157 14.2578 21.9697 14.5567 22.164 14.784C22.362 15.0077 22.5893 15.1708 22.846 15.2735C23.1027 15.3725 23.374 15.422 23.66 15.422C23.9387 15.422 24.1843 15.3743 24.397 15.279C24.6097 15.1837 24.7893 15.059 24.936 14.905C25.0863 14.751 25.2018 14.586 25.2825 14.41C25.3668 14.2303 25.4163 14.0562 25.431 13.8875L25.4805 13.3045H23.704V12.3585L26.8775 12.3695V16.5H25.9315V15.3835C25.7958 15.5852 25.6235 15.7795 25.4145 15.9665C25.2092 16.1535 24.9562 16.3075 24.6555 16.4285C24.3585 16.5495 23.9955 16.61 23.5665 16.61Z" fill="black"/>
<path d="M7.13244 32.5V31.46V30.924C7.13244 30.332 7.24177 29.8227 7.46044 29.396C7.6791 28.964 7.96977 28.588 8.33244 28.268C8.6951 27.948 9.09244 27.6653 9.52444 27.42C9.96177 27.1693 10.3938 26.9347 10.8204 26.716C11.2524 26.492 11.6498 26.2627 12.0124 26.028C12.3751 25.788 12.6658 25.5213 12.8844 25.228C13.1084 24.9347 13.2204 24.5853 13.2204 24.18C13.2204 23.6627 13.0364 23.2413 12.6684 22.916C12.3058 22.5853 11.8124 22.42 11.1884 22.42C10.5271 22.42 9.98044 22.6093 9.54844 22.988C9.12177 23.3667 8.86844 23.9 8.78844 24.588H6.90044C6.9111 23.884 7.0791 23.244 7.40444 22.668C7.72977 22.092 8.21244 21.6333 8.85244 21.292C9.49244 20.9453 10.2898 20.772 11.2444 20.772C12.0711 20.772 12.7831 20.916 13.3804 21.204C13.9831 21.4867 14.4471 21.884 14.7724 22.396C15.1031 22.9027 15.2684 23.4947 15.2684 24.172C15.2684 24.764 15.1591 25.2707 14.9404 25.692C14.7271 26.1133 14.4418 26.4787 14.0844 26.788C13.7324 27.092 13.3431 27.3613 12.9164 27.596C12.4951 27.8307 12.0711 28.052 11.6444 28.26C11.2231 28.4627 10.8338 28.676 10.4764 28.9C10.1244 29.1187 9.8391 29.3693 9.62044 29.652C9.4071 29.9347 9.30044 30.2733 9.30044 30.668V30.836H15.2924V32.5H7.13244ZM16.6954 20.932H25.1034V22.556C24.7141 23.0627 24.3274 23.6493 23.9434 24.316C23.5594 24.9773 23.1914 25.6787 22.8394 26.42C22.4874 27.156 22.1728 27.8947 21.8954 28.636C21.6181 29.372 21.3914 30.0733 21.2154 30.74C21.0394 31.4067 20.9328 31.9933 20.8954 32.5H18.7914C18.8554 32.004 18.9834 31.3853 19.1754 30.644C19.3728 29.8973 19.6421 29.076 19.9834 28.18C20.3248 27.2787 20.7488 26.348 21.2554 25.388C21.7621 24.428 22.3541 23.484 23.0314 22.556H16.6954V20.932Z" fill="black"/>
<defs>
<linearGradient id="paint0_linear_67_12320" x1="203" y1="20.2198" x2="679" y2="20.2198" gradientUnits="userSpaceOnUse">
<stop stop-color="#127896"/>
<stop offset="0.28" stop-color="#00A37A"/>
<stop offset="0.81" stop-color="#00A37A"/>
<stop offset="1" stop-color="#127896"/>
</linearGradient>
</defs>
</svg>
