<svg width="24" height="40" viewBox="0 0 24 40" fill="none" xmlns="http://www.w3.org/2000/svg">
<path d="M0.5 13C0.5 12.4477 0.947715 12 1.5 12C2.05228 12 2.5 12.4477 2.5 13V39C2.5 39.5523 2.05228 40 1.5 40C0.947715 40 0.5 39.5523 0.5 39V13Z" fill="black" fill-opacity="0.64"/>
<path d="M7.5 25C7.5 24.4477 7.94772 24 8.5 24C9.05228 24 9.5 24.4477 9.5 25V39C9.5 39.5523 9.05228 40 8.5 40C7.94772 40 7.5 39.5523 7.5 39V25Z" fill="black" fill-opacity="0.64"/>
<path d="M14.5 25C14.5 24.4477 14.9477 24 15.5 24C16.0523 24 16.5 24.4477 16.5 25V39C16.5 39.5523 16.0523 40 15.5 40C14.9477 40 14.5 39.5523 14.5 39V25Z" fill="black" fill-opacity="0.64"/>
<path d="M21.5 25C21.5 24.4477 21.9477 24 22.5 24C23.0523 24 23.5 24.4477 23.5 25V39C23.5 39.5523 23.0523 40 22.5 40C21.9477 40 21.5 39.5523 21.5 39V25Z" fill="black" fill-opacity="0.64"/>
</svg>
