<svg width="28" height="40" viewBox="0 0 28 40" fill="none" xmlns="http://www.w3.org/2000/svg">
<path d="M0 13C0 12.4477 0.447715 12 1 12C1.55228 12 2 12.4477 2 13V39C2 39.5523 1.55228 40 1 40C0.447715 40 0 39.5523 0 39V13Z" fill="black" fill-opacity="0.64"/>
<path d="M7 25C7 24.4477 7.44772 24 8 24C8.55228 24 9 24.4477 9 25V39C9 39.5523 8.55228 40 8 40C7.44772 40 7 39.5523 7 39V25Z" fill="black" fill-opacity="0.64"/>
<path d="M14 25C14 24.4477 14.4477 24 15 24C15.5523 24 16 24.4477 16 25V39C16 39.5523 15.5523 40 15 40C14.4477 40 14 39.5523 14 39V25Z" fill="black" fill-opacity="0.64"/>
<path d="M21 25C21 24.4477 21.4477 24 22 24C22.5523 24 23 24.4477 23 25V39C23 39.5523 22.5523 40 22 40C21.4477 40 21 39.5523 21 39V25Z" fill="black" fill-opacity="0.64"/>
</svg>
